<?xml version="1.0" encoding="UTF-8" standalone="no"?><!-- Generator: Gravit.io --><svg xmlns="http://www.w3.org/2000/svg" xmlns:xlink="http://www.w3.org/1999/xlink" style="isolation:isolate" viewBox="0 0 458.532 86.995" width="458.532pt" height="86.995pt"><defs><clipPath id="_clipPath_f8y1ZV7GrI7e2FZVbSuHDUipLm0uOefk"><rect width="458.532" height="86.995"/></clipPath></defs><g clip-path="url(#_clipPath_f8y1ZV7GrI7e2FZVbSuHDUipLm0uOefk)"><path d=" M 100.935 86.241 C 100.279 85.826 99.438 85.095 99.064 84.617 L 98.383 83.748 L 97.295 84.61 C 93.54 87.584 86.56 87.287 83.358 84.015 C 81.487 82.105 80.697 79.18 81.2 76.031 C 82.056 70.678 86.041 68.136 93.872 67.948 L 96.547 67.886 L 96.423 65.952 C 96.317 64.324 96.193 63.913 95.625 63.346 C 94.193 61.913 91.112 62.321 87.022 64.484 C 85.805 65.127 84.78 65.622 84.745 65.583 C 84.658 65.486 82.257 61.405 81.956 60.842 C 81.638 60.249 82.937 59.408 86.128 58.141 C 89.198 56.921 91.437 56.426 93.903 56.421 C 98.647 56.396 101.904 58.017 103.261 61.031 C 103.686 61.976 103.736 62.976 103.742 70.653 C 103.742 80.126 103.742 80.134 105.518 81.75 L 106.324 82.486 L 104.408 84.742 C 103.354 85.983 102.41 86.998 102.309 86.998 C 102.21 86.998 101.589 86.659 100.934 86.243 L 100.935 86.241 Z  M 94.246 80.701 C 96.045 79.875 96.168 79.595 96.266 76.089 L 96.356 72.959 L 94.261 73.133 C 90.414 73.455 89.106 74.517 89.106 77.321 C 89.106 80.433 91.46 81.98 94.247 80.7 L 94.246 80.701 Z  M 272.817 86.241 C 272.162 85.826 271.321 85.095 270.946 84.617 L 270.266 83.748 L 269.178 84.61 C 267.001 86.334 263.637 87.053 260.46 86.474 C 257.904 86.007 256.378 85.248 255.067 83.789 C 253.572 82.127 252.999 80.413 253.016 77.654 C 253.055 71.313 257.201 68.153 265.75 67.948 L 268.42 67.886 L 268.323 65.975 C 268.24 64.331 268.13 63.967 267.53 63.368 C 266.074 61.912 263.022 62.307 258.905 64.484 C 257.687 65.127 256.669 65.622 256.641 65.583 C 256.562 65.471 253.798 60.789 253.686 60.579 C 253.389 60.02 258.859 57.561 262.042 56.823 C 264.164 56.33 267.802 56.308 269.555 56.776 C 272.304 57.51 274.213 58.964 275.143 61.031 C 275.567 61.972 275.621 62.995 275.642 70.522 C 275.668 79.777 275.689 79.898 277.263 81.521 C 278.131 82.415 278.181 82.545 277.822 82.971 C 275.962 85.175 274.31 86.998 274.174 86.998 C 274.084 86.998 273.472 86.658 272.817 86.243 L 272.817 86.241 Z  M 266.128 80.701 C 267.892 79.891 268.026 79.589 268.172 76.087 L 268.303 72.954 L 266.175 73.133 C 262.294 73.456 260.988 74.512 260.988 77.323 C 260.988 80.435 263.341 81.982 266.128 80.702 L 266.128 80.701 Z  M 326.265 85.77 C 325.702 85.212 325.011 84.247 324.732 83.624 L 324.223 82.493 L 322.789 83.804 C 320.684 85.728 318.991 86.319 315.557 86.328 C 313.202 86.328 312.583 86.243 311.408 85.712 C 310.648 85.369 309.614 84.633 309.111 84.076 C 307.438 82.225 307.371 81.616 307.448 69.072 L 307.519 57.893 L 309.232 57.567 C 310.175 57.387 311.094 57.232 311.276 57.224 C 311.534 57.198 311.606 59.5 311.611 67.818 C 311.611 73.654 311.723 78.887 311.854 79.447 C 312.447 82.003 315.854 83.45 318.803 82.398 C 320.315 81.859 321.798 80.729 322.817 79.341 L 323.732 78.095 L 323.732 68.076 L 323.732 58.058 L 325.511 57.741 C 326.49 57.567 327.498 57.367 327.752 57.298 C 328.187 57.18 328.213 57.85 328.215 68.723 C 328.215 75.855 328.321 80.649 328.488 81.255 C 328.639 81.794 329.049 82.579 329.403 82.998 L 330.046 83.762 L 328.668 85.273 L 327.29 86.785 L 326.265 85.77 Z  M 161.733 86.213 C 158.739 85.548 156.726 84.451 154.836 82.453 C 152.281 79.75 151.057 76.21 151.057 71.521 C 151.057 66.293 152.309 62.609 155.022 59.853 C 157.479 57.358 160.781 56.196 164.581 56.488 C 166.782 56.658 169.621 57.617 170.973 58.648 C 173.905 60.885 175.574 65.438 175.574 71.202 L 175.574 73.815 L 167.401 73.815 L 159.229 73.815 L 159.229 75.067 C 159.229 76.35 159.956 78.296 160.753 79.177 C 162.79 81.429 167.571 81.322 171.101 78.946 L 172.415 78.062 L 173.852 80.21 C 175.499 82.669 175.514 82.59 173.104 84.05 C 170.801 85.444 168.157 86.219 165.286 86.341 C 163.909 86.396 162.308 86.341 161.728 86.215 L 161.733 86.213 Z  M 167.929 67.273 C 167.929 65.661 167.226 63.718 166.336 62.864 C 165.594 62.154 165.358 62.084 163.708 62.084 C 161.995 62.084 161.842 62.138 160.95 62.999 C 159.956 63.963 159.229 65.823 159.229 67.404 L 159.229 68.279 L 163.579 68.279 L 167.929 68.279 L 167.929 67.273 Z  M 375.137 86.279 C 372.88 86.084 370.725 85.596 368.853 84.858 C 366.125 83.781 365.994 83.632 366.658 82.351 C 367.703 80.331 367.779 80.282 368.863 80.922 C 371.349 82.388 375.569 83.246 378.016 82.782 C 380.258 82.357 381.859 80.898 382.167 78.999 C 382.541 76.692 381.336 74.687 379.145 73.972 C 378.463 73.75 376.72 73.315 375.272 73.005 C 372.136 72.334 370.611 71.662 369.339 70.39 C 367.794 68.845 367.36 67.684 367.36 65.097 C 367.36 63.103 367.453 62.655 368.156 61.282 C 370.155 57.372 375.481 55.71 381.268 57.191 C 383.095 57.658 385.418 58.626 385.418 58.92 C 385.418 58.982 385.094 59.702 384.697 60.511 C 384.196 61.532 383.854 61.943 383.577 61.855 C 383.357 61.784 382.407 61.406 381.465 61.013 C 380.21 60.488 379.152 60.265 377.51 60.178 C 375.512 60.07 375.14 60.131 374.082 60.696 C 372.397 61.6 371.66 62.952 371.781 64.915 C 371.852 66.071 372.025 66.588 372.517 67.114 C 373.445 68.105 373.702 68.206 377.556 69.081 C 383.046 70.327 384.894 71.378 386.108 73.947 C 387.293 76.453 386.816 80.319 385.034 82.655 C 383.19 85.072 378.987 86.612 375.137 86.279 L 375.137 86.279 Z  M 136.264 85.823 C 134.194 85.252 132.645 84.32 131.134 82.736 C 128.606 80.086 127.506 76.7 127.506 71.574 C 127.506 63.458 130.92 58.203 137.254 56.57 C 140.895 55.631 145.323 56.523 147.845 58.694 L 148.719 59.448 L 146.904 61.868 L 145.089 64.288 L 143.714 63.33 C 142.568 62.531 142.064 62.354 140.687 62.266 C 139.194 62.171 138.953 62.227 138.18 62.881 C 137.138 63.758 136.455 65.056 136.063 66.908 C 135.686 68.684 135.678 74.695 136.039 76.429 C 136.992 80.872 140.977 81.823 145.192 78.614 C 146.186 77.857 146.039 77.763 148.002 80.389 L 149.468 82.35 L 148.779 83.07 C 147.845 84.044 145.409 85.31 143.522 85.802 C 141.677 86.282 137.959 86.293 136.253 85.827 L 136.264 85.823 Z  M 185.166 85.776 C 183.666 85.245 182.056 83.795 181.475 82.452 C 181.023 81.406 180.978 80.098 180.851 64.058 C 180.773 54.561 180.623 46.651 180.512 46.48 C 180.226 46.04 180.327 46.003 184.266 45.099 C 186.738 44.531 187.889 44.37 188.082 44.563 C 188.268 44.747 188.403 50.62 188.491 62.292 C 188.593 75.782 188.699 79.878 188.96 80.334 C 189.312 80.95 190.34 81.35 190.959 81.112 C 191.22 81.013 191.475 81.54 191.883 83.027 C 192.192 84.156 192.445 85.204 192.445 85.356 C 192.445 86.143 187.073 86.453 185.165 85.776 L 185.166 85.776 Z  M 203.609 85.831 C 200.162 84.995 197.101 82.49 195.595 79.273 C 193.397 74.576 193.497 67.713 195.831 63.09 C 198.436 57.929 204.125 55.418 210.047 56.814 C 214.717 57.915 218.127 61.433 219.37 66.434 C 219.596 67.342 219.722 69.263 219.708 71.575 C 219.684 74.865 219.609 75.491 218.972 77.346 C 216.977 83.164 212.691 86.259 206.734 86.183 C 205.762 86.158 204.356 86.013 203.609 85.832 L 203.609 85.831 Z  M 209.091 80.21 C 211.206 78.961 212.266 72.961 211.4 67.14 C 210.877 63.625 209.533 62.084 206.991 62.084 C 204.112 62.084 202.928 63.712 202.419 68.366 C 202.073 71.54 202.396 76.499 203.08 78.104 C 203.493 79.093 204.4 80.067 205.231 80.415 C 206.166 80.806 208.271 80.695 209.091 80.21 L 209.091 80.21 Z  M 445.327 85.806 C 441.055 84.878 438.04 81.744 436.707 76.847 C 436.047 74.422 435.893 69.616 436.399 67.225 C 437.035 64.221 438.358 61.778 440.365 59.9 C 442.732 57.686 444.315 57.087 447.765 57.1 C 450.961 57.125 452.649 57.681 454.627 59.412 C 457.044 61.528 458.065 64.23 458.353 69.267 L 458.523 72.234 L 449.744 72.234 L 440.965 72.234 L 441.122 74.409 C 441.302 76.908 441.638 78.035 442.6 79.395 C 445.012 82.803 450.451 83.551 454.553 81.039 C 455.387 80.528 456.158 80.168 456.267 80.237 C 456.375 80.308 456.755 80.899 457.109 81.554 L 457.753 82.744 L 457.109 83.288 C 455.985 84.237 453.365 85.405 451.456 85.808 C 449.216 86.28 447.507 86.28 445.327 85.808 L 445.327 85.806 Z  M 453.63 67.027 C 453.551 65.904 453.283 64.477 453.033 63.858 C 452.225 61.849 449.851 60.367 447.45 60.372 C 444.067 60.372 441.722 63.1 441.148 67.686 L 440.974 69.07 L 447.372 69.07 L 453.771 69.07 L 453.63 67.027 Z  M 50.879 66.2 L 50.879 46.662 L 58.459 46.662 C 62.627 46.662 66.809 46.788 67.751 46.937 C 71.403 47.519 74.492 49.7 75.873 52.671 C 76.457 53.927 76.572 54.541 76.569 56.414 C 76.568 58.319 76.453 58.903 75.807 60.316 C 74.947 62.199 73.049 64.1 71.525 64.602 L 70.573 64.917 L 72.433 65.779 C 74.785 66.868 76.485 68.423 77.238 70.173 C 79.262 74.877 77.801 80.793 73.963 83.436 C 71.196 85.342 70.333 85.477 60.04 85.614 L 50.879 85.736 L 50.879 66.198 L 50.879 66.2 Z  M 66.743 78.648 C 67.221 78.368 67.97 77.631 68.407 77.009 C 69.124 75.989 69.201 75.682 69.199 73.859 C 69.199 72.122 69.099 71.687 68.496 70.759 C 67.399 69.066 66.568 68.807 62.241 68.807 L 58.524 68.807 L 58.524 73.903 C 58.524 76.706 58.614 79.093 58.721 79.206 C 58.829 79.32 60.483 79.355 62.395 79.285 C 65.19 79.181 66.042 79.057 66.741 78.648 L 66.743 78.648 Z  M 66.419 61.828 C 67.339 61.353 68.542 59.05 68.542 57.766 C 68.542 56.419 67.602 54.685 66.505 54.007 C 65.687 53.501 65.088 53.406 62.042 53.304 L 58.524 53.184 L 58.524 57.7 L 58.524 62.216 L 62.097 62.216 C 64.726 62.216 65.867 62.114 66.419 61.828 L 66.419 61.828 Z  M 110.916 73.361 C 110.83 63.517 110.729 60.733 110.415 59.558 L 110.021 58.086 L 113.261 57.229 C 115.044 56.758 116.612 56.44 116.746 56.523 C 116.878 56.606 117.198 57.447 117.454 58.391 L 117.919 60.109 L 119.283 58.819 C 121.383 56.833 122.541 56.343 124.86 56.46 C 125.919 56.515 126.899 56.674 127.037 56.816 C 127.41 57.201 125.359 63.436 124.909 63.289 C 123.047 62.683 120.587 63.235 119.338 64.538 L 118.637 65.269 L 118.567 75.408 L 118.496 85.546 L 114.759 85.617 L 111.02 85.687 L 110.916 73.361 Z  M 225.064 73.486 C 224.968 63.532 224.871 61.003 224.534 59.714 C 224.306 58.845 224.141 58.124 224.166 58.112 C 224.529 57.938 230.219 56.416 230.509 56.416 C 230.765 56.416 231.072 56.959 231.368 57.932 C 231.622 58.766 231.861 59.492 231.898 59.547 C 231.938 59.601 232.624 59.209 233.428 58.676 C 235.572 57.253 237.546 56.628 240.029 56.586 C 242.511 56.547 244.158 57.16 245.771 58.731 C 247.497 60.413 247.543 60.803 247.543 74.002 L 247.543 85.693 L 243.918 85.623 L 240.293 85.552 L 240.161 74.875 C 240.09 69.004 239.932 64.002 239.813 63.762 C 239.035 62.194 235.782 62.684 233.342 64.737 L 232.516 65.432 L 232.516 75.559 L 232.516 85.685 L 228.848 85.685 L 225.18 85.685 L 225.064 73.486 Z  M 290.25 68.411 L 290.25 51.144 L 285.109 51.144 L 279.968 51.144 L 279.968 49.167 L 279.968 47.189 L 292.622 47.189 L 305.276 47.189 L 305.276 48.75 C 305.276 51.311 305.657 51.144 299.844 51.144 L 294.731 51.144 L 294.731 68.411 L 294.731 85.678 L 292.491 85.678 L 290.25 85.678 L 290.25 68.411 Z  M 337.438 73.645 C 337.438 63.471 337.376 61.328 337.016 59.908 C 336.784 58.983 336.636 58.193 336.687 58.151 C 336.734 58.112 337.685 57.834 338.793 57.537 L 340.806 57 L 341.125 57.696 C 341.301 58.08 341.508 59.016 341.587 59.778 C 341.665 60.538 341.767 61.162 341.812 61.162 C 341.859 61.162 342.495 60.561 343.229 59.827 C 344.91 58.146 347.051 57.135 349.235 56.99 C 351.209 56.86 351.205 56.847 350.093 59.757 L 349.304 61.824 L 348.143 61.734 C 346.283 61.585 343.371 63.211 342.371 64.956 C 342.143 65.353 342.014 68.382 341.92 75.53 L 341.788 85.548 L 339.613 85.627 L 337.438 85.705 L 337.438 73.645 Z  M 355.101 71.762 L 355.101 57.825 L 357.144 57.515 C 358.268 57.343 359.337 57.205 359.519 57.205 C 359.782 57.205 359.837 60.129 359.783 71.377 L 359.713 85.547 L 357.406 85.625 L 355.099 85.703 L 355.101 71.762 Z  M 394.06 72.959 C 393.989 61.823 393.923 60.101 393.538 59.135 L 393.098 58.032 L 394.912 57.62 C 395.91 57.393 396.906 57.207 397.125 57.207 C 397.518 57.207 398.335 59.376 398.335 60.418 C 398.335 61.079 398.657 61.019 399.409 60.217 C 400.378 59.186 402.765 57.834 404.505 57.331 C 406.383 56.788 407.837 56.935 409.643 57.85 C 410.907 58.491 412.571 60.172 412.571 60.809 C 412.571 61.566 413.198 61.383 414.445 60.262 C 416.04 58.828 418.476 57.581 420.517 57.156 C 423.653 56.501 426.52 57.882 427.991 60.757 L 428.784 62.308 L 428.862 73.992 L 428.941 85.677 L 426.688 85.677 L 424.434 85.677 L 424.409 74.802 C 424.383 67.099 424.301 63.662 424.079 63.014 C 423.897 62.488 423.374 61.835 422.842 61.473 C 422.055 60.938 421.697 60.865 420.403 60.978 C 418.65 61.131 417.36 61.807 414.975 63.824 L 413.351 65.197 L 413.351 75.437 L 413.351 85.677 L 411.242 85.677 L 409.133 85.677 L 409.133 75.198 C 409.133 69.435 409.017 64.244 408.884 63.664 C 408.739 63.034 408.315 62.318 407.832 61.885 C 407.13 61.256 406.804 61.161 405.379 61.165 C 403.446 61.165 402.314 61.633 399.979 63.364 L 398.331 64.586 L 398.331 75.131 L 398.331 85.677 L 396.234 85.677 L 394.137 85.677 L 394.06 72.959 Z  M 355.707 51.945 C 353.365 50.517 353.565 47.325 356.072 46.112 C 357.124 45.603 357.377 45.574 358.319 45.856 C 360.36 46.468 361.33 48.36 360.594 50.294 C 359.859 52.225 357.483 53.028 355.707 51.945 L 355.707 51.945 Z  M 7.842 39.082 L 0 31.237 L 7.777 23.463 L 15.555 15.688 L 23.397 23.53 L 31.238 31.372 L 23.461 39.149 L 15.683 46.927 L 7.842 39.082 Z  M 105.185 38.885 L 97.411 31.108 L 105.121 23.398 L 112.831 15.688 L 120.609 23.465 L 128.386 31.243 L 120.673 38.953 L 112.959 46.663 L 105.185 38.885 Z  M 37.698 23.332 L 29.925 15.555 L 37.698 7.778 L 45.472 0.001 L 53.316 7.842 L 61.161 15.683 L 53.452 23.396 C 49.211 27.638 45.681 31.109 45.607 31.109 C 45.537 31.109 41.974 27.609 37.698 23.332 Z  M 75.133 23.332 L 67.358 15.554 L 75.135 7.777 L 82.912 0 L 90.687 7.778 L 98.461 15.556 L 90.684 23.333 L 82.908 31.11 L 75.133 23.332 Z " fill="rgb(255,255,255)"/></g></svg>