<?xml version="1.0" encoding="UTF-8" standalone="no"?><!-- Generator: Gravit.io --><svg xmlns="http://www.w3.org/2000/svg" xmlns:xlink="http://www.w3.org/1999/xlink" style="isolation:isolate" viewBox="0 0 146.098 134.504" width="146.098pt" height="134.504pt"><defs><clipPath id="_clipPath_OBj6tyUrhspFce8Jr5v0FTzDabjbc5Pf"><rect width="146.098" height="134.504"/></clipPath></defs><g clip-path="url(#_clipPath_OBj6tyUrhspFce8Jr5v0FTzDabjbc5Pf)"><g><g><path d=" M 31.682 33.862 C 34.77 34.231 37.572 32.292 40.271 31.48 C 39.156 34.738 35.881 35.831 33.834 38.161 C 30.164 37.844 27.126 38.213 23.814 38.161 C 24.534 36.65 26.055 35.947 26.912 34.578 C 26.392 25.545 27.528 16.12 27.39 6.674 C 26.519 6.108 25.653 7.912 24.53 7.151 C 25.899 3.676 29.685 2.605 31.922 0 C 36.066 0.223 33.576 4.234 33.112 7.151 C 31.961 14.491 32.344 26.233 31.682 33.862 Z " fill="rgb(255,255,255)"/></g><g><path d=" M 83.149 10.249 C 85.287 10.054 89.786 12.731 90.786 14.063 C 95.501 20.377 93.235 37.641 84.108 38.634 C 80.053 39.075 74.889 37.315 72.417 35.534 C 70.974 34.492 68.179 31.154 67.89 28.853 C 67.212 23.633 70.146 15.75 73.135 13.354 C 75.218 11.675 79.316 10.597 83.149 10.249 Z  M 75.28 19.551 C 74.577 22.585 75.012 30.611 75.757 32.19 C 76.68 34.152 80.843 36.634 83.149 36.252 C 87.817 35.476 87.366 27.289 86.492 21.94 C 85.864 18.118 84.335 14.462 82.2 13.354 C 80.615 13.087 78.44 14.173 77.192 15.02 C 76.293 16.127 75.696 17.741 75.28 19.551 Z " fill="rgb(255,255,255)"/></g><g><path d=" M 144.657 16.453 C 142.214 17.741 139.468 18.733 136.549 19.551 C 134.071 18.508 133.408 14.637 130.588 14.541 C 126.259 14.397 124.85 24.33 126.053 29.568 C 126.733 32.508 128.689 35.165 130.824 35.533 C 135.707 35.244 138.956 33.326 139.408 28.613 C 141.291 28.108 144.158 28.593 146.088 28.137 C 144.411 33.956 138.544 37.793 132.257 38.633 C 127.322 39.291 121.836 36.07 120.806 32.19 C 119.874 28.715 120.209 20.225 121.282 18.357 C 122.847 15.664 129.398 11.907 132.257 10.488 C 135.952 8.657 142.707 14.035 144.657 16.453 Z " fill="rgb(255,255,255)"/></g><g><path d=" M 61.129 23.366 C 64.815 23.685 68.057 27.977 66.854 33.623 C 63.702 40.052 50.379 36.634 43.003 38.161 C 42.872 30.686 43.259 23.352 43.711 16.214 C 43.078 14.861 42.113 13.688 39.897 14.064 C 40.324 12.891 42.575 11.537 43.954 11.206 C 46.958 10.48 57.704 10.141 61.368 11.445 C 64.437 12.537 67.637 15.556 67.089 18.357 C 66.586 20.92 63.415 23.25 61.129 23.366 Z  M 60.65 20.984 C 62.121 19.545 63.051 15.947 61.368 14.064 C 58.913 11.329 51.525 13.232 48.49 14.304 C 48.635 17.125 48.153 19.796 48.244 22.418 C 51.791 22.932 58.102 23.489 60.65 20.984 Z  M 56.597 35.296 C 58.027 34.911 60.344 32.639 60.65 31.48 C 62.469 24.581 53.737 23.656 48.011 25.276 C 47.62 27.594 47.616 32.596 47.439 35.121 C 49.836 35.252 53.47 36.135 56.597 35.296 Z " fill="rgb(255,255,255)"/></g><g><path d=" M 120.331 20.267 C 118.398 20.804 116.767 21.636 114.844 22.179 C 115.123 17.228 111.091 13.999 107.927 13.824 C 101.485 13.491 98.419 23.076 105.06 24.32 C 111.02 25.435 115.781 23.453 118.421 27.187 C 120.491 30.106 118.695 34.346 116.274 36.013 C 109.502 40.675 96.33 36.714 91.94 32.436 C 93.673 30.822 96.159 29.882 98.621 29.099 C 100.836 32.64 108.193 38.162 110.548 34.579 C 115.173 24.863 98.901 28.404 95.525 23.367 C 95.44 17.199 100.362 13 105.538 11.444 C 112.589 9.324 118.065 15.439 120.331 20.267 Z " fill="rgb(255,255,255)"/></g><g><path d=" M 24.686 20.267 C 18.757 22.367 11.762 24.451 6.328 27.044 C 5.793 30.352 9.007 33.651 11.331 34.817 C 16.015 37.163 21.671 32.726 22.776 27.905 C 23.623 27.745 24.074 27.724 25.194 27.31 C 25.084 31.712 20.08 38.206 14.194 38.162 C 6.213 38.097 -1.014 31.785 0.117 23.367 C 0.781 18.445 7.734 11.698 12.996 11.444 C 16.782 11.255 22.177 14.738 24.686 20.267 Z  M 9.18 15.497 C 7.343 17.336 6.195 21.614 6.066 24.589 C 9.887 23.526 14.727 21.281 18.486 20.507 C 18.139 15.867 12.967 11.719 9.18 15.497 Z " fill="rgb(255,255,255)"/></g><g><path d=" M 63.638 63.289 C 57.704 65.388 50.71 67.473 45.279 70.065 C 44.745 73.373 47.965 76.673 50.279 77.838 C 54.962 80.185 60.623 75.747 61.73 70.926 C 62.579 70.766 63.026 70.745 64.146 70.331 C 64.039 74.734 59.03 81.227 53.142 81.183 C 45.161 81.119 37.935 74.806 39.069 66.387 C 39.737 61.464 46.69 54.719 51.952 54.465 C 55.736 54.276 61.129 57.759 63.638 63.289 Z  M 48.132 58.518 C 46.291 60.357 45.146 64.635 45.011 67.61 C 48.835 66.547 53.676 64.302 57.438 63.528 C 57.095 58.888 51.918 54.74 48.132 58.518 Z " fill="rgb(255,255,255)"/></g><g><path d=" M 106.638 107.982 C 100.704 110.081 93.71 112.16 88.277 114.758 C 87.741 118.066 90.961 121.366 93.279 122.533 C 97.96 124.886 103.619 120.434 104.73 115.611 C 105.571 115.453 106.022 115.432 107.139 115.018 C 107.035 119.427 102.027 125.914 96.142 125.87 C 88.163 125.804 80.933 119.491 82.069 111.08 C 82.733 106.159 89.686 99.412 94.952 99.159 C 98.73 98.969 104.127 102.444 106.638 107.982 Z  M 91.126 103.211 C 89.295 105.042 88.146 109.328 88.017 112.297 C 91.831 111.232 96.676 108.995 100.436 108.221 C 100.09 103.573 94.91 99.433 91.126 103.211 Z " fill="rgb(255,255,255)"/></g><g><path d=" M 108.417 62.373 C 102.481 64.472 95.486 66.551 90.056 69.149 C 89.519 72.457 92.738 75.757 95.058 76.924 C 99.735 79.277 105.394 74.825 106.507 70.002 C 107.349 69.844 107.803 69.823 108.916 69.409 C 108.812 73.818 103.806 80.305 97.921 80.261 C 89.94 80.195 82.712 73.882 83.848 65.471 C 84.507 60.55 91.461 53.803 96.73 53.549 C 100.513 53.36 105.906 56.835 108.417 62.373 Z  M 92.906 57.602 C 91.074 59.433 89.921 63.719 89.792 66.688 C 93.606 65.623 98.457 63.386 102.213 62.612 C 101.871 57.964 96.691 53.824 92.906 57.602 Z " fill="rgb(255,255,255)"/></g><g><path d=" M 21.863 38.67 C 20.914 40.732 18.875 40.842 18.378 42.983 C 17.837 45.307 20.009 48.542 21.628 49.896 C 23.942 51.823 41.784 58.938 38.147 71.02 C 37.038 74.711 32.911 78.366 29.561 80.249 C 26.205 82.132 22.331 82.993 17.64 79.843 C 14.357 77.636 9.879 73.271 9.73 69.855 C 9.596 66.699 12.247 62.912 13.757 61.248 C 16.812 57.902 20.498 56.608 23.983 54.384 C 19.566 52.474 13.006 51.65 12.008 48.08 C 10.397 42.34 18.703 41.362 21.222 38.271 C 21.613 38.293 21.566 38.583 21.863 38.67 Z  M 16.177 71.642 C 16.475 72.915 17.23 74.263 18.006 75.27 C 18.848 76.377 21.414 79.186 24.636 79.315 C 27.622 79.423 30.697 75.768 31.92 72.474 C 35.996 61.435 27.772 56.413 25.91 55.578 C 19.706 57.324 14.44 64.331 16.177 71.642 Z " fill="rgb(255,255,255)"/></g><g><path d=" M 63.846 83.254 C 62.893 85.326 60.856 85.426 60.363 87.569 C 59.825 89.893 61.992 93.137 63.611 94.483 C 65.92 96.407 83.771 103.522 80.128 115.606 C 79.019 119.303 74.898 122.952 71.544 124.835 C 68.19 126.716 64.31 127.577 59.625 124.429 C 56.335 122.22 51.862 117.863 51.717 114.439 C 51.579 111.283 54.224 107.498 55.738 105.84 C 58.786 102.488 62.485 101.192 65.968 98.97 C 61.555 97.058 54.985 96.234 53.991 92.664 C 52.38 86.924 60.686 85.948 63.207 82.857 C 63.596 82.88 63.553 83.169 63.846 83.254 Z  M 58.156 116.228 C 58.453 117.495 59.213 118.847 59.989 119.854 C 60.831 120.961 63.401 123.778 66.622 123.901 C 69.605 124.009 72.682 120.354 73.901 117.06 C 77.987 106.021 69.759 100.997 67.893 100.165 C 61.693 101.91 56.423 108.915 58.156 116.228 Z " fill="rgb(255,255,255)"/></g><g><path d=" M 27.622 90.291 C 24.974 90.588 24.56 93.108 22.377 93.873 C 21.784 92.875 21.657 91.412 21.183 90.291 C 21.1 96.684 20.37 104.761 20.474 109.14 C 23.461 108.36 25.962 104.912 28.816 105.566 C 28.317 107.838 26.786 109.09 26.195 111.283 C 23.931 111.805 22.381 113.035 20.474 113.911 C 19.802 120.36 20.174 127.295 19.991 133.47 C 18.849 133.89 17.047 134.745 15.936 134.427 C 15.106 129.808 16.308 125.414 15.462 121.303 C 14.86 118.377 12.678 116.235 12.36 113.671 C 13.377 112.623 15.1 112.275 16.179 111.283 C 15.819 104.059 15.928 95.467 15.936 88.626 C 17.696 87.576 20.336 84.028 22.856 84.095 C 25.313 84.153 27.314 87.085 27.622 90.291 Z " fill="rgb(255,255,255)"/></g><g><path d=" M 52.3 96.256 C 53.005 97.263 51.844 98.087 51.823 99.117 C 49.901 98.948 48.669 99.462 47.288 99.838 C 47.906 107.967 49.524 115.097 51.584 121.78 C 52.651 122.778 53.885 123.502 55.398 123.452 C 51.994 130.799 41.735 123.082 42.278 116.533 C 37.782 120.939 34.218 126.282 26.533 127.505 C 22.632 124.74 25.062 121.259 27.257 117.487 C 30.45 112.001 34.89 105.529 37.988 101.026 C 34.886 99.716 32.26 102.474 29.16 102.699 C 29.023 101.012 31.312 99.78 31.782 97.926 C 38.002 98.087 45.811 97.232 52.3 96.256 Z  M 27.492 121.54 C 39.201 122.121 43.237 113.753 42.521 102.699 C 42.469 102.431 42.253 102.323 42.043 102.221 C 37.374 108.837 31.746 114.512 27.492 121.54 Z " fill="rgb(255,255,255)"/></g><g><path d=" M 132.09 102.699 C 130.987 103.98 128.977 104.348 127.319 105.087 C 126.164 103.77 124.991 102.48 123.505 101.504 C 119.738 102.509 117.555 105.102 117.545 109.849 C 120.857 110.74 124.808 109.583 128.037 109.849 C 131.85 110.17 136.573 113.513 135.19 117.726 C 134.301 120.447 128.817 125.095 126.129 126.073 C 124.631 126.622 122.361 126.629 120.164 126.31 C 115.304 125.603 109.008 124.328 106.327 122.018 C 106.57 119.32 107.812 117.61 108.954 115.814 C 111.588 116.85 112.418 121.309 116.584 122.975 C 123.84 125.869 134.468 119.209 128.276 112.716 C 122.865 112.637 105.886 114.012 112.3 105.566 C 115.121 101.831 127.696 94.836 132.09 102.699 Z " fill="rgb(255,255,255)"/></g><g><path d=" M 76.501 77.763 C 80.835 77.634 82.94 74.035 86.044 73.471 C 85.998 75.518 84.192 77.798 83.895 80.391 C 78.927 80.341 73.08 80.122 68.393 80.391 C 68.329 78.624 70.648 77.249 71.495 75.62 C 71.31 70.154 71.472 65.088 71.734 58.92 C 71.969 53.317 73.139 46.499 68.393 46.281 C 69.136 43.364 72.406 42.981 74.119 41.033 C 74.46 41.439 77.728 45.492 77.934 46.759 C 78.061 47.527 77.562 48.38 77.46 49.141 C 76.372 57.393 76.561 69.418 76.501 77.763 Z " fill="rgb(255,255,255)"/></g><g><path d=" M 136.989 57.965 C 135.787 60.187 133.221 61.034 130.55 61.779 C 130.413 57.638 126.728 55.3 122.197 55.822 C 120.104 56.055 117.524 58.009 117.434 59.399 C 117.26 61.889 121.104 64.017 123.63 64.408 C 128.305 65.124 134.734 63.612 138.183 65.601 C 143.002 68.374 137.166 75.258 136.036 77.524 C 128.338 83.083 114.083 80.283 108.13 74.426 C 108.884 72.239 111.565 71.986 113.134 70.604 C 116.057 71.696 117.318 74.405 120.293 76.099 C 125.309 78.949 135.002 78.204 133.652 70.604 C 133.196 68.078 129.131 66.441 125.544 66.079 C 120.676 65.58 114.472 68.453 111.709 65.355 C 112.269 60.911 114.545 56.763 118.146 54.867 C 124.271 51.645 132.986 54.511 136.989 57.965 Z " fill="rgb(255,255,255)"/></g></g></g></svg>