<?xml version="1.0" encoding="UTF-8" standalone="no"?><!-- Generator: Gravit.io --><svg xmlns="http://www.w3.org/2000/svg" xmlns:xlink="http://www.w3.org/1999/xlink" style="isolation:isolate" viewBox="0 0 42.803 42.803" width="42.803pt" height="42.803pt"><defs><clipPath id="_clipPath_QjsoIgxqoda3X7TcSmunnlHT0v95o1Ri"><rect width="42.803" height="42.803"/></clipPath></defs><g clip-path="url(#_clipPath_QjsoIgxqoda3X7TcSmunnlHT0v95o1Ri)"><path d=" M 21.412 10.428 C 15.337 10.428 10.437 15.328 10.437 21.402 C 10.437 27.477 15.337 32.377 21.412 32.377 C 27.487 32.377 32.386 27.477 32.386 21.402 C 32.386 15.328 27.487 10.428 21.412 10.428 Z  M 21.412 28.537 C 17.486 28.537 14.277 25.338 14.277 21.402 C 14.277 17.467 17.477 14.267 21.412 14.267 C 25.347 14.267 28.547 17.467 28.547 21.402 C 28.547 25.338 25.338 28.537 21.412 28.537 Z  M 35.395 9.979 C 35.395 11.402 34.249 12.539 32.835 12.539 C 31.412 12.539 30.276 11.392 30.276 9.979 C 30.276 8.565 31.422 7.419 32.835 7.419 C 34.249 7.419 35.395 8.565 35.395 9.979 Z  M 42.664 12.577 C 42.501 9.148 41.718 6.111 39.206 3.608 C 36.704 1.106 33.666 0.322 30.237 0.15 C 26.703 -0.05 16.111 -0.05 12.577 0.15 C 9.157 0.313 6.12 1.096 3.608 3.599 C 1.096 6.101 0.322 9.138 0.15 12.567 C -0.05 16.101 -0.05 26.694 0.15 30.228 C 0.313 33.657 1.096 36.694 3.608 39.197 C 6.12 41.699 9.148 42.482 12.577 42.654 C 16.111 42.855 26.703 42.855 30.237 42.654 C 33.666 42.492 36.704 41.709 39.206 39.197 C 41.709 36.694 42.492 33.657 42.664 30.228 C 42.865 26.694 42.865 16.111 42.664 12.577 L 42.664 12.577 Z  M 38.098 34.02 C 37.353 35.892 35.911 37.334 34.029 38.089 C 31.212 39.206 24.526 38.948 21.412 38.948 C 18.298 38.948 11.603 39.197 8.794 38.089 C 6.922 37.344 5.48 35.901 4.726 34.02 C 3.608 31.202 3.866 24.516 3.866 21.402 C 3.866 18.289 3.618 11.593 4.726 8.785 C 5.471 6.913 6.913 5.471 8.794 4.716 C 11.612 3.599 18.298 3.856 21.412 3.856 C 24.526 3.856 31.221 3.608 34.029 4.716 C 35.901 5.461 37.344 6.903 38.098 8.785 C 39.216 11.603 38.958 18.289 38.958 21.402 C 38.958 24.516 39.216 31.212 38.098 34.02 Z " fill="rgb(255,255,255)"/></g></svg>