<?xml version="1.0" encoding="UTF-8" standalone="no"?><!-- Generator: Gravit.io --><svg xmlns="http://www.w3.org/2000/svg" xmlns:xlink="http://www.w3.org/1999/xlink" style="isolation:isolate" viewBox="0 0 158.797 154.8" width="158.797pt" height="154.8pt"><defs><clipPath id="_clipPath_OXWWmYCupSQVpkeanJuzNiDmGDkvqQi4"><rect width="158.797" height="154.8"/></clipPath></defs><g clip-path="url(#_clipPath_OXWWmYCupSQVpkeanJuzNiDmGDkvqQi4)"><g><g><path d=" M 79.405 0 C 35.622 0 0 34.724 0 77.403 C 0 120.085 35.622 154.809 79.405 154.809 C 123.191 154.809 158.81 120.085 158.81 77.403 C 158.81 34.724 123.191 0 79.405 0 Z  M 79.405 153.575 C 36.317 153.575 1.267 119.409 1.267 77.403 C 1.267 35.406 36.317 1.234 79.405 1.234 C 122.494 1.234 157.547 35.406 157.547 77.403 C 157.547 119.409 122.494 153.575 79.405 153.575 Z " fill="rgb(255,255,255)"/></g><g><path d=" M 32.27 21.435 C 32.393 21.393 32.555 21.339 32.769 21.262 C 33.587 20.954 34.094 20.836 34.292 20.907 C 34.494 20.984 34.879 21.47 35.457 22.367 C 35.484 22.413 35.561 22.544 35.682 22.762 L 37.756 26.32 L 39.812 29.807 C 40.147 30.502 40.296 30.97 40.246 31.207 C 40.167 31.569 39.751 32.05 39 32.647 L 39.389 33.319 C 40.49 32.564 41.114 32.143 41.266 32.054 C 41.99 31.617 42.581 31.284 43.049 31.07 C 43.511 30.851 43.939 30.631 44.32 30.4 L 43.873 29.707 L 43.332 29.878 C 42.62 30.105 42.106 30.169 41.784 30.08 C 41.464 29.986 41.151 29.695 40.837 29.208 L 39.025 26.233 L 36.194 21.654 L 38.289 22.97 L 41.722 25.153 C 41.753 25.172 41.784 25.201 41.817 25.236 L 42.084 25.403 C 42.152 25.444 42.248 25.502 42.379 25.586 C 42.683 25.788 43.09 26.048 43.604 26.368 C 44.484 26.913 45.125 27.329 45.527 27.614 L 47 28.758 L 47.757 28.307 C 47.699 27.987 47.647 27.733 47.595 27.543 C 47.395 26.794 47.164 25.681 46.91 24.192 C 46.89 24.044 46.85 23.771 46.802 23.362 C 46.765 23.047 46.738 22.81 46.713 22.644 L 45.645 15.678 C 45.791 15.849 46.026 16.163 46.355 16.637 L 48.691 19.916 C 49.459 21.102 50.077 22.022 50.543 22.675 C 50.649 22.829 50.77 23.012 50.905 23.22 C 51.261 23.778 51.435 24.144 51.429 24.317 C 51.421 24.489 51.275 24.697 50.994 24.939 C 50.597 25.278 50.293 25.586 50.089 25.846 L 50.493 26.522 C 50.601 26.451 50.713 26.368 50.822 26.285 C 51.666 25.663 52.565 25.057 53.516 24.483 C 54.136 24.104 54.831 23.73 55.59 23.368 C 56.352 23.006 56.82 22.775 56.999 22.669 C 56.918 22.525 56.839 22.39 56.747 22.259 C 56.716 22.205 56.664 22.134 56.591 22.034 C 55.272 22.39 54.562 22.556 54.471 22.55 C 54.379 22.55 54.284 22.473 54.178 22.319 C 54.142 22.259 54.082 22.188 54.003 22.093 C 53.41 21.31 52.933 20.653 52.567 20.131 C 50.946 17.794 50.041 16.49 49.852 16.234 L 47.805 13.406 L 47.711 13.265 C 47.589 13.069 47.622 12.832 47.805 12.541 C 48.08 12.127 48.491 11.688 49.051 11.224 C 48.985 11.105 48.93 11.018 48.893 10.958 L 48.733 10.662 C 48.7 10.608 48.648 10.537 48.583 10.454 C 48.485 10.496 48.404 10.537 48.34 10.579 C 48.286 10.608 48.063 10.768 47.672 11.057 C 47.276 11.349 46.74 11.705 46.059 12.127 C 45.585 12.435 45.19 12.695 44.861 12.92 C 44.728 13.009 44.626 13.074 44.563 13.115 C 44.389 13.223 44.283 13.323 44.258 13.413 C 44.253 13.46 44.297 13.852 44.399 14.592 C 44.499 15.339 44.578 15.891 44.649 16.253 C 45.052 18.487 45.317 20.172 45.441 21.304 C 45.508 21.951 45.598 22.644 45.716 23.393 C 45.743 23.624 45.768 23.848 45.772 24.063 C 45.554 23.919 45.302 23.765 45.025 23.593 C 44.749 23.416 44.493 23.256 44.256 23.108 C 44.02 22.958 43.777 22.804 43.525 22.644 C 43.359 22.544 43.234 22.467 43.151 22.413 L 39.541 20.095 L 39.262 19.906 C 38.289 19.246 37.529 18.762 36.99 18.441 C 36.741 18.298 36.516 18.198 36.325 18.137 L 35.859 18.393 C 35.738 18.458 35.642 18.506 35.574 18.541 L 32.64 20.195 C 32.313 20.397 32.035 20.576 31.808 20.746 L 31.995 21.038 C 32.066 21.15 32.162 21.281 32.27 21.435 Z " fill="rgb(255,255,255)"/></g><g><path d=" M 56.734 8.645 C 57.606 8.491 58.151 8.52 58.368 8.71 C 58.524 8.847 58.736 9.54 59.006 10.786 L 60.138 16.058 C 60.357 17.077 60.581 17.841 60.812 18.363 C 61.141 19.129 61.57 19.716 62.106 20.125 C 62.641 20.533 63.359 20.806 64.264 20.943 C 65.169 21.074 66.205 21.026 67.376 20.789 C 68.408 20.575 69.282 20.279 70.006 19.911 C 70.73 19.532 71.313 19.104 71.743 18.63 C 72.176 18.155 72.488 17.664 72.671 17.165 C 72.788 16.828 72.848 16.401 72.842 15.873 C 72.838 15.34 72.677 14.319 72.353 12.819 L 71.756 10.597 C 71.623 10.056 71.492 9.517 71.354 8.988 C 71.313 8.841 71.273 8.687 71.238 8.545 C 71.202 8.395 71.157 8.194 71.102 7.934 C 71.005 7.476 70.926 7.158 70.861 6.979 C 70.782 6.735 70.73 6.546 70.707 6.411 C 70.663 6.226 70.684 6.084 70.774 5.972 C 70.815 5.918 71.086 5.799 71.579 5.633 C 71.881 5.556 72.17 5.456 72.434 5.325 C 72.44 5.194 72.43 5.094 72.415 5.01 C 72.394 4.915 72.33 4.755 72.238 4.517 L 72.041 4.536 C 71.394 4.738 70.713 4.909 69.985 5.058 L 67.799 5.402 L 66.904 5.585 L 67.062 6.44 L 67.218 6.44 L 68.283 6.203 C 68.583 6.142 68.878 6.196 69.17 6.379 C 69.347 6.498 69.49 6.771 69.609 7.199 L 69.775 7.78 C 70.453 9.966 70.986 11.959 71.367 13.738 C 71.589 14.764 71.677 15.536 71.639 16.052 C 71.61 16.424 71.5 16.84 71.319 17.302 C 71.229 17.521 71.046 17.783 70.768 18.078 C 70.487 18.382 70.175 18.619 69.827 18.796 C 69.24 19.104 68.583 19.341 67.859 19.485 C 67.245 19.614 66.588 19.584 65.887 19.408 C 65.402 19.27 64.998 19.039 64.67 18.696 C 64.228 18.234 63.904 17.604 63.696 16.809 L 62.951 14.065 L 62.587 12.145 L 62.325 11.273 L 62.123 10.228 L 62.029 9.837 C 61.99 9.69 61.944 9.498 61.896 9.261 C 61.728 8.485 61.68 8.04 61.751 7.915 C 61.85 7.726 62.111 7.59 62.537 7.507 C 62.991 7.411 63.419 7.293 63.833 7.145 L 63.812 7.062 L 63.65 6.421 L 63.636 6.286 C 63.477 6.327 63.174 6.398 62.722 6.492 C 62.275 6.588 61.765 6.712 61.191 6.854 C 60.615 6.997 60.028 7.126 59.422 7.251 C 59.248 7.287 58.653 7.382 57.644 7.536 C 57.223 7.594 56.822 7.667 56.445 7.744 C 56.3 7.773 56.16 7.803 56.025 7.838 L 56.248 8.703 C 56.381 8.703 56.543 8.681 56.734 8.645 Z " fill="rgb(255,255,255)"/></g><g><path d=" M 80.086 18.615 L 81.447 19.1 C 82.181 19.295 82.82 19.414 83.356 19.449 C 84.174 19.503 84.848 19.478 85.379 19.378 C 85.907 19.278 86.423 19.093 86.929 18.821 C 87.436 18.55 87.815 18.307 88.061 18.095 C 88.408 17.791 88.666 17.466 88.837 17.117 C 89.153 16.455 89.338 15.767 89.386 15.063 C 89.429 14.418 89.38 13.88 89.238 13.436 C 89.095 12.991 88.809 12.519 88.379 12.026 C 88.058 11.647 87.574 11.293 86.927 10.95 C 86.278 10.613 85.728 10.351 85.266 10.187 C 83.891 9.696 83.003 9.209 82.603 8.736 C 82.193 8.268 82.004 7.79 82.037 7.309 C 82.081 6.741 82.331 6.273 82.805 5.917 C 83.273 5.564 83.887 5.404 84.638 5.458 C 85.433 5.51 86.105 5.853 86.646 6.487 C 86.962 6.866 87.251 7.559 87.526 8.57 L 87.661 8.605 L 88.489 8.712 L 88.608 8.689 C 88.647 8.535 88.674 8.387 88.685 8.25 C 88.712 7.825 88.708 7.22 88.672 6.446 C 88.645 5.924 88.601 5.535 88.541 5.272 C 87.836 4.983 87.264 4.788 86.829 4.688 C 86.113 4.509 85.572 4.409 85.204 4.386 C 83.492 4.274 82.166 4.605 81.232 5.381 C 80.296 6.155 79.788 7.139 79.703 8.333 C 79.664 8.926 79.778 9.552 80.048 10.216 C 80.321 10.879 80.718 11.416 81.239 11.836 C 81.761 12.253 82.709 12.754 84.095 13.334 C 85.479 13.915 86.323 14.364 86.629 14.678 C 87.124 15.182 87.355 15.721 87.316 16.27 C 87.284 16.721 87.103 17.135 86.775 17.508 C 86.44 17.88 86.017 18.14 85.508 18.278 C 84.998 18.419 84.532 18.473 84.118 18.448 C 83.65 18.419 83.219 18.319 82.83 18.153 C 82.441 17.986 82.106 17.78 81.831 17.52 C 81.561 17.264 81.322 16.94 81.107 16.543 C 81.014 16.359 80.81 15.839 80.496 14.98 L 79.422 14.932 L 79.393 15.359 C 79.376 15.561 79.366 15.91 79.343 16.395 C 79.314 17.341 79.302 17.857 79.295 17.941 L 79.285 18.063 C 79.308 18.176 79.341 18.253 79.374 18.284 C 79.468 18.371 79.705 18.484 80.086 18.615 Z " fill="rgb(255,255,255)"/></g><g><path d=" M 93.52 20.38 C 94.826 20.735 95.917 21.062 96.794 21.351 C 98.557 21.944 100.053 22.473 101.284 22.941 C 103.038 23.604 104.114 24.002 104.526 24.145 C 104.802 24.235 105.183 24.353 105.666 24.489 L 106.29 23.338 L 107.401 21.453 L 107.58 21.156 C 107.634 21.037 107.705 20.896 107.79 20.723 C 107.632 20.665 107.513 20.617 107.43 20.594 C 107.284 20.54 107.093 20.492 106.862 20.434 C 106.23 21.187 105.578 21.719 104.915 22.027 C 104.411 22.271 103.897 22.373 103.371 22.312 C 102.61 22.223 101.719 22.011 100.706 21.667 C 99.175 21.162 98.282 20.777 98.037 20.527 C 97.872 20.361 97.841 20.142 97.937 19.87 L 98.769 17.575 C 98.939 16.999 99.175 16.289 99.472 15.441 C 99.489 15.386 99.532 15.268 99.599 15.078 C 100.173 15.21 101.016 15.459 102.121 15.832 C 103.061 16.146 103.594 16.354 103.721 16.447 C 103.899 16.579 104.012 16.726 104.058 16.88 C 104.114 17.082 104.103 17.546 104.016 18.251 C 103.97 18.636 103.945 18.892 103.933 19.015 L 104.711 19.271 L 104.79 19.04 C 104.865 18.832 104.965 18.511 105.092 18.085 C 105.221 17.652 105.316 17.344 105.383 17.149 C 105.429 17.03 105.493 16.864 105.578 16.649 C 105.664 16.443 105.841 15.963 106.103 15.216 C 106.217 14.889 106.371 14.402 106.567 13.762 L 105.934 13.537 L 105.791 13.501 C 105.287 14.325 104.973 14.806 104.852 14.943 C 104.671 15.126 104.499 15.239 104.338 15.287 C 104.174 15.334 103.806 15.287 103.23 15.149 C 102.655 15.014 101.715 14.729 100.406 14.29 C 100.271 14.242 100.119 14.184 99.942 14.101 L 100.417 12.755 L 101.041 10.953 C 101.469 9.73 101.727 9.03 101.813 8.864 C 102.522 9.066 103.325 9.322 104.216 9.617 C 104.998 9.879 105.718 10.152 106.377 10.441 C 106.739 10.591 106.96 10.678 107.026 10.714 C 107.309 10.816 107.532 10.922 107.698 11.034 C 107.877 11.467 108 11.87 108.054 12.251 L 108.225 13.158 C 108.237 13.472 108.25 13.71 108.264 13.876 C 108.452 13.953 108.574 13.999 108.633 14.017 L 109.088 14.149 C 109.124 14.065 109.149 13.999 109.165 13.957 L 109.298 13.514 L 110.074 11.313 C 110.156 11.076 110.16 10.857 110.076 10.668 C 109.246 10.277 108.608 10.002 108.16 9.848 L 106.176 9.209 C 104.854 8.77 103.373 8.313 101.721 7.828 C 100.618 7.508 99.934 7.306 99.672 7.216 C 98.915 6.96 98.257 6.694 97.71 6.428 C 97.419 6.28 97.069 6.126 96.659 5.966 L 96.301 6.802 C 96.478 6.883 96.634 6.956 96.77 7.008 C 97.15 7.152 97.533 7.335 97.92 7.56 C 98.051 7.63 98.151 7.697 98.23 7.732 C 98.367 7.803 98.461 7.892 98.505 7.992 C 98.48 8.105 98.465 8.177 98.453 8.213 L 98.084 9.569 L 97.65 10.774 L 97.102 12.505 L 96.663 13.71 L 95.284 17.742 L 95.153 18.068 C 95.059 18.364 94.989 18.572 94.947 18.69 C 94.837 19.004 94.704 19.252 94.55 19.431 C 94.21 19.479 93.64 19.414 92.854 19.248 C 92.421 19.152 92.13 19.098 91.98 19.088 L 91.72 19.822 L 93.058 20.226 L 93.52 20.38 Z " fill="rgb(255,255,255)"/></g><g><path d=" M 115.26 30.922 C 116.099 31.538 116.902 31.983 117.668 32.268 C 118.435 32.553 119.147 32.695 119.802 32.695 C 120.453 32.701 121.034 32.605 121.542 32.41 C 121.876 32.281 122.245 32.031 122.653 31.681 C 123.056 31.332 123.732 30.537 124.679 29.31 L 125.996 27.406 C 126.329 26.95 126.649 26.499 126.965 26.047 C 127.061 25.918 127.149 25.794 127.24 25.675 C 127.325 25.55 127.452 25.377 127.621 25.169 C 127.906 24.791 128.095 24.524 128.195 24.364 C 128.332 24.144 128.445 23.979 128.526 23.871 C 128.644 23.717 128.773 23.64 128.915 23.63 C 128.981 23.624 129.25 23.753 129.703 24.002 C 129.968 24.169 130.236 24.316 130.509 24.418 C 130.608 24.341 130.685 24.269 130.733 24.198 C 130.796 24.121 130.883 23.973 130.997 23.748 L 130.856 23.611 C 130.276 23.272 129.691 22.887 129.098 22.454 L 127.39 21.073 L 126.66 20.546 L 126.102 21.227 L 126.204 21.339 L 127.088 21.957 C 127.338 22.14 127.486 22.396 127.542 22.727 C 127.565 22.929 127.452 23.22 127.194 23.592 L 126.866 24.098 C 125.621 26.037 124.444 27.739 123.318 29.197 C 122.673 30.034 122.141 30.608 121.718 30.922 C 121.41 31.147 121.015 31.342 120.541 31.509 C 120.316 31.592 119.994 31.627 119.582 31.621 C 119.164 31.615 118.772 31.538 118.406 31.403 C 117.778 31.178 117.166 30.851 116.573 30.419 C 116.076 30.05 115.662 29.553 115.335 28.918 C 115.121 28.479 115.032 28.022 115.077 27.56 C 115.148 26.932 115.419 26.278 115.893 25.598 L 117.516 23.243 L 118.758 21.707 L 119.255 20.948 L 119.931 20.112 L 120.168 19.775 C 120.256 19.65 120.374 19.496 120.52 19.3 C 121.003 18.666 121.321 18.339 121.46 18.31 C 121.671 18.256 121.949 18.358 122.297 18.612 C 122.667 18.884 123.048 19.117 123.426 19.323 L 123.483 19.252 L 123.868 18.714 L 123.959 18.612 C 123.826 18.524 123.57 18.345 123.202 18.079 C 122.827 17.819 122.399 17.521 121.91 17.195 C 121.423 16.868 120.934 16.525 120.435 16.163 C 120.293 16.057 119.831 15.689 119.045 15.05 C 118.72 14.781 118.404 14.534 118.092 14.307 C 117.978 14.224 117.863 14.143 117.745 14.064 L 117.222 14.8 C 117.31 14.896 117.435 14.996 117.589 15.114 C 118.283 15.653 118.627 16.069 118.616 16.358 C 118.614 16.56 118.219 17.172 117.441 18.191 L 114.122 22.502 C 113.484 23.332 113.038 24.002 112.789 24.512 C 112.419 25.259 112.25 25.964 112.287 26.624 C 112.323 27.287 112.587 27.993 113.084 28.746 C 113.575 29.499 114.299 30.223 115.26 30.922 Z " fill="rgb(255,255,255)"/></g><g><path d=" M 130.211 129.886 C 130.021 130.076 129.795 130.277 129.532 130.485 C 129.349 130.675 129.177 130.829 129.016 130.947 C 128.815 131.089 128.681 131.155 128.602 131.143 C 128.453 131.126 128.315 131.031 128.195 130.877 L 127.92 130.515 L 125.546 127.444 L 124.635 126.227 L 123.869 125.243 C 122.558 123.447 121.88 122.509 121.832 122.428 C 121.647 122.118 121.564 121.87 121.601 121.685 C 121.656 121.389 121.934 120.992 122.44 120.476 C 122.692 120.216 122.856 120.043 122.933 119.954 C 122.663 119.592 122.467 119.355 122.355 119.23 C 122.263 119.309 122.111 119.421 121.914 119.563 C 121.597 119.8 121.341 119.996 121.154 120.149 C 120.584 120.618 120.284 120.867 120.247 120.89 L 119.207 121.633 L 118.437 122.207 L 118.2 122.355 L 117.461 122.919 L 116.883 123.299 L 114.919 124.604 C 113.683 125.492 112.851 126.387 112.416 127.284 C 111.79 128.546 111.54 129.816 111.655 131.085 C 111.773 132.354 112.297 133.592 113.225 134.813 C 113.96 135.78 114.842 136.527 115.874 137.056 C 116.902 137.576 118.056 137.855 119.346 137.892 C 120.307 137.921 121.36 137.701 122.506 137.239 C 123.264 136.925 124.329 136.271 125.702 135.277 C 127.354 134.085 128.677 132.986 129.666 131.998 C 130.265 131.393 130.706 130.899 130.987 130.521 L 130.371 129.726 C 130.298 129.803 130.244 129.851 130.211 129.886 Z  M 124.645 134.736 C 123.744 135.383 122.798 135.768 121.81 135.88 C 120.819 135.995 119.831 135.809 118.839 135.323 C 117.854 134.844 116.895 133.989 115.967 132.768 C 115.402 132.027 114.95 131.239 114.609 130.408 C 114.261 129.578 114.124 128.842 114.189 128.203 C 114.259 127.569 114.507 126.915 114.944 126.245 C 115.148 125.919 115.558 125.534 116.169 125.089 C 116.976 124.508 117.769 124.258 118.549 124.354 C 119.092 124.419 119.675 124.864 120.307 125.694 L 120.952 126.601 L 122.076 128.024 L 122.712 128.896 C 122.96 129.223 123.258 129.601 123.599 130.028 L 124.618 131.368 L 125.806 132.893 C 125.867 132.976 125.962 133.111 126.093 133.307 C 125.76 133.8 125.278 134.28 124.645 134.736 Z " fill="rgb(255,255,255)"/></g><g><path d=" M 113.401 141.9 C 113.012 142.024 112.6 142.124 112.155 142.195 C 112.005 142.22 111.886 142.237 111.803 142.255 C 111.655 142.291 111.524 142.278 111.424 142.232 C 111.366 142.13 111.329 142.066 111.318 142.024 L 110.702 140.761 L 110.241 139.563 L 109.521 137.897 L 109.059 136.705 L 107.453 132.749 L 107.33 132.412 C 107.209 132.134 107.126 131.932 107.08 131.813 C 106.955 131.499 106.895 131.233 106.893 130.996 C 107.124 130.746 107.598 130.438 108.312 130.076 C 108.707 129.874 108.969 129.733 109.088 129.649 L 108.803 128.919 L 107.509 129.454 L 107.057 129.625 C 105.822 130.172 104.773 130.609 103.905 130.935 C 102.17 131.589 100.672 132.121 99.422 132.543 C 97.643 133.13 96.555 133.496 96.147 133.652 C 95.873 133.752 95.509 133.906 95.049 134.102 L 95.332 135.377 L 95.727 137.518 L 95.791 137.855 C 95.823 137.98 95.862 138.134 95.91 138.319 C 96.07 138.265 96.193 138.223 96.272 138.194 C 96.416 138.14 96.595 138.057 96.811 137.957 C 96.794 136.983 96.942 136.172 97.246 135.512 C 97.47 135.009 97.799 134.612 98.24 134.326 C 98.881 133.919 99.703 133.521 100.704 133.141 C 102.214 132.579 103.148 132.31 103.504 132.348 C 103.735 132.371 103.905 132.512 104.012 132.787 L 104.892 135.069 C 105.141 135.608 105.433 136.303 105.761 137.131 C 105.788 137.191 105.832 137.31 105.901 137.493 C 105.378 137.755 104.569 138.092 103.479 138.502 C 102.555 138.852 102.01 139.024 101.848 139.035 C 101.621 139.047 101.44 139.006 101.303 138.916 C 101.124 138.797 100.835 138.438 100.427 137.838 C 100.208 137.518 100.065 137.304 99.992 137.204 L 99.222 137.493 L 99.314 137.726 C 99.395 137.926 99.532 138.236 99.715 138.644 C 99.903 139.053 100.038 139.355 100.111 139.546 C 100.156 139.665 100.217 139.829 100.29 140.044 C 100.367 140.256 100.545 140.73 100.837 141.473 C 100.964 141.8 101.17 142.268 101.444 142.877 L 102.079 142.653 L 102.214 142.592 C 102.05 141.639 101.975 141.076 101.977 140.897 C 101.996 140.643 102.045 140.447 102.141 140.31 C 102.237 140.169 102.549 139.979 103.08 139.723 C 103.61 139.463 104.517 139.095 105.809 138.608 C 105.94 138.556 106.098 138.508 106.29 138.46 L 106.814 139.788 L 107.528 141.556 C 108.006 142.759 108.27 143.46 108.318 143.643 C 107.64 143.928 106.86 144.242 105.98 144.573 C 105.208 144.864 104.478 145.108 103.785 145.303 C 103.408 145.409 103.179 145.476 103.107 145.499 C 102.824 145.595 102.582 145.659 102.383 145.672 C 101.954 145.457 101.598 145.22 101.305 144.964 L 100.575 144.377 C 100.36 144.146 100.19 143.974 100.071 143.855 C 99.876 143.916 99.755 143.951 99.697 143.974 L 99.258 144.165 C 99.287 144.248 99.308 144.313 99.322 144.361 L 99.518 144.781 L 100.377 146.951 C 100.475 147.188 100.612 147.355 100.797 147.444 C 101.698 147.23 102.368 147.034 102.805 146.868 L 104.754 146.108 C 106.05 145.624 107.486 145.041 109.067 144.371 C 110.126 143.928 110.782 143.655 111.042 143.56 C 111.789 143.275 112.467 143.067 113.064 142.931 C 113.386 142.861 113.755 142.753 114.173 142.624 L 113.894 141.758 C 113.705 141.804 113.54 141.852 113.401 141.9 Z " fill="rgb(255,255,255)"/></g><g><path d=" M 87.522 138.081 C 86.996 137.465 86.286 136.901 85.387 136.391 C 84.772 136.029 84.037 135.786 83.186 135.638 C 82.333 135.495 81.437 135.436 80.488 135.472 C 79.244 135.513 78.197 135.638 77.353 135.846 C 76.506 136.046 75.852 136.337 75.397 136.706 L 75.251 137.238 L 75.16 137.584 C 75.035 138.418 74.962 138.898 74.945 139.017 C 74.887 139.327 74.846 139.622 74.827 139.907 C 75.287 139.889 75.661 139.841 75.946 139.783 C 76.635 138.738 77.363 137.943 78.139 137.405 C 78.913 136.866 79.72 136.581 80.569 136.558 C 81.343 136.52 82.071 136.67 82.766 136.991 C 83.297 137.222 83.736 137.536 84.073 137.943 C 84.518 138.491 84.899 139.196 85.206 140.068 C 85.396 140.6 85.512 141.514 85.558 142.789 C 85.633 144.994 85.202 146.732 84.247 147.994 C 83.55 148.933 82.602 149.417 81.403 149.459 C 80.434 149.494 79.541 149.299 78.738 148.879 C 77.935 148.458 77.144 147.747 76.366 146.75 L 75.314 146.786 C 75.341 147.331 75.432 147.84 75.588 148.315 C 75.934 149.365 76.162 150 76.273 150.225 C 77.011 150.385 77.804 150.497 78.653 150.568 C 79.502 150.628 80.409 150.651 81.364 150.616 C 83.717 150.533 85.627 149.738 87.087 148.225 C 88.554 146.715 89.249 144.84 89.164 142.6 C 89.134 141.674 88.983 140.844 88.712 140.109 C 88.444 139.367 88.044 138.697 87.522 138.081 Z " fill="rgb(255,255,255)"/></g><g><path d=" M 73.592 135.703 L 73.116 135.603 C 71.776 135.395 70.657 135.199 69.748 135.004 C 67.927 134.623 66.379 134.274 65.098 133.947 C 63.279 133.485 62.158 133.206 61.736 133.123 C 61.446 133.059 61.053 132.988 60.56 132.911 L 60.08 134.12 L 59.204 136.123 L 59.064 136.439 C 59.023 136.562 58.971 136.716 58.908 136.895 C 59.07 136.937 59.197 136.966 59.276 136.985 C 59.426 137.014 59.624 137.043 59.863 137.068 C 60.4 136.248 60.98 135.649 61.6 135.264 C 62.073 134.962 62.57 134.815 63.103 134.808 C 63.87 134.808 64.779 134.921 65.826 135.139 C 67.409 135.478 68.341 135.751 68.614 135.969 C 68.799 136.119 68.857 136.331 68.797 136.61 L 68.246 138.988 C 68.144 139.575 67.996 140.309 67.804 141.183 C 67.792 141.241 67.763 141.366 67.719 141.555 C 67.13 141.497 66.269 141.341 65.123 141.104 C 64.159 140.898 63.604 140.754 63.462 140.671 C 63.265 140.559 63.136 140.428 63.073 140.274 C 62.994 140.085 62.949 139.629 62.949 138.911 C 62.949 138.526 62.944 138.27 62.938 138.145 L 62.139 137.979 L 62.085 138.222 C 62.035 138.43 61.977 138.763 61.898 139.207 C 61.825 139.646 61.765 139.966 61.723 140.168 C 61.698 140.293 61.652 140.465 61.592 140.684 C 61.534 140.898 61.415 141.395 61.245 142.167 C 61.17 142.51 61.074 143.001 60.955 143.667 L 61.609 143.815 L 61.765 143.838 C 62.16 142.962 62.416 142.446 62.518 142.296 C 62.674 142.09 62.83 141.959 62.99 141.899 C 63.146 141.834 63.517 141.834 64.103 141.905 C 64.688 141.972 65.657 142.148 67.014 142.44 C 67.149 142.463 67.309 142.51 67.494 142.569 L 67.184 143.963 L 66.787 145.818 C 66.504 147.081 66.334 147.805 66.269 147.988 C 65.537 147.864 64.713 147.705 63.791 147.514 C 62.984 147.343 62.237 147.152 61.546 146.946 C 61.166 146.834 60.941 146.767 60.868 146.744 C 60.575 146.673 60.338 146.596 60.163 146.501 C 59.928 146.091 59.763 145.7 59.663 145.338 L 59.383 144.462 C 59.335 144.141 59.295 143.908 59.26 143.75 C 59.064 143.696 58.939 143.655 58.879 143.642 L 58.411 143.571 C 58.38 143.655 58.365 143.719 58.355 143.761 L 58.274 144.225 L 57.772 146.495 C 57.714 146.744 57.741 146.956 57.841 147.135 C 58.717 147.431 59.383 147.633 59.842 147.735 L 61.896 148.138 C 63.259 148.427 64.781 148.719 66.481 149.004 C 67.617 149.199 68.318 149.324 68.589 149.376 C 69.377 149.543 70.06 149.732 70.636 149.934 C 70.94 150.046 71.312 150.158 71.735 150.273 L 71.99 149.401 C 71.805 149.341 71.643 149.293 71.497 149.251 C 71.102 149.151 70.701 149.014 70.291 148.837 C 70.153 148.771 70.041 148.731 69.964 148.696 C 69.818 148.642 69.714 148.565 69.656 148.469 C 69.669 148.357 69.679 148.28 69.685 148.244 L 69.885 146.857 L 70.174 145.61 L 70.509 143.832 L 70.798 142.587 L 71.685 138.418 L 71.774 138.081 C 71.832 137.779 71.88 137.565 71.905 137.44 C 71.974 137.114 72.078 136.853 72.209 136.658 C 72.544 136.575 73.11 136.575 73.917 136.652 C 74.356 136.693 74.653 136.716 74.803 136.712 L 74.974 135.946 L 73.592 135.703 Z " fill="rgb(255,255,255)"/></g><g><path d=" M 59.122 133.266 C 59.209 133.141 59.278 133.048 59.313 132.975 C 59.338 132.923 59.39 132.815 59.463 132.638 L 59.016 132.423 C 58.656 132.247 58.25 132.074 57.79 131.907 L 56.315 131.298 C 56.236 131.269 56.105 131.208 55.926 131.119 C 55.649 130.99 54.803 130.491 53.386 129.638 L 52.947 129.448 C 52.918 129.436 52.836 129.388 52.71 129.317 C 52.595 129.471 52.452 129.715 52.281 130.041 C 52.593 130.378 52.988 130.734 53.471 131.109 C 53.75 131.321 53.954 131.529 54.091 131.737 L 53.051 133.603 L 51.944 135.869 C 51.807 136.135 51.68 136.366 51.555 136.551 C 51.218 136.403 50.981 136.295 50.841 136.225 C 50.338 135.975 50.022 135.734 49.886 135.49 C 49.795 135.336 49.745 134.843 49.739 134.013 C 49.736 132.228 49.751 130.936 49.784 130.135 C 49.797 129.827 49.788 129.346 49.757 128.706 L 49.749 127.865 C 49.632 127.823 49.478 127.769 49.281 127.699 C 48.848 127.545 48.592 127.449 48.517 127.414 L 47.487 126.898 C 47.163 126.737 46.901 126.59 46.695 126.442 L 46.306 126.251 C 46.044 126.061 45.798 125.866 45.496 125.683 L 45.082 125.439 C 43.799 124.199 42.979 123.417 42.613 123.115 C 42.542 123.173 42.48 123.234 42.426 123.298 C 42.351 123.375 42.23 123.523 42.051 123.731 C 42.374 124.087 42.548 124.295 42.594 124.349 C 42.933 124.715 43.12 125.006 43.164 125.231 C 43.189 125.362 43.137 125.497 43.006 125.651 C 42.91 125.753 42.671 125.914 42.294 126.126 C 40.961 126.862 40.11 127.318 39.748 127.484 L 36.402 124.663 L 37.193 122.408 L 37.586 121.276 C 37.632 121.176 37.684 121.087 37.744 121.01 C 37.811 120.939 37.898 120.897 38.009 120.891 C 38.092 120.885 38.312 120.974 38.668 121.145 L 39.825 121.757 C 40.004 121.59 40.181 121.407 40.36 121.205 L 39.912 120.862 L 38.356 119.687 C 38.14 119.526 37.799 119.254 37.341 118.863 C 36.923 118.513 36.469 118.099 35.986 117.625 C 35.5 117.15 35.044 116.728 34.609 116.362 C 34.526 116.443 34.466 116.503 34.432 116.545 C 34.353 116.634 34.241 116.788 34.11 117.001 C 34.289 117.333 34.49 117.612 34.699 117.843 C 34.913 118.068 35.034 118.27 35.063 118.442 C 35.086 118.532 35.05 118.744 34.952 119.083 C 34.788 119.705 34.622 120.203 34.468 120.583 C 34.201 121.289 34.006 121.827 33.887 122.196 C 33.694 122.807 33.421 123.577 33.072 124.513 C 32.722 125.452 32.391 126.442 32.077 127.472 L 30.488 132.282 L 30.433 132.5 L 30.831 132.833 C 31.008 132.981 31.193 133.141 31.384 133.301 L 38.165 129.725 L 43.934 126.696 C 44.304 126.548 44.568 126.484 44.727 126.5 C 44.856 126.506 45.141 126.638 45.521 126.839 C 45.555 126.875 45.561 126.891 45.59 126.927 C 45.917 127.26 46.116 127.526 46.181 127.705 C 46.247 127.882 46.312 128.423 46.366 129.317 L 46.67 132.738 C 46.701 133.112 46.759 133.568 46.84 134.113 C 46.88 134.369 46.905 134.587 46.913 134.772 C 45.838 134.593 44.924 134.67 44.19 135.003 C 43.449 135.336 42.908 135.846 42.555 136.522 C 42.091 137.435 42.091 138.442 42.565 139.558 C 43.035 140.666 43.98 141.574 45.392 142.26 C 46.291 142.705 47.163 143.08 48.014 143.394 L 49.337 143.968 L 49.901 144.205 C 49.94 144.23 50.2 144.378 50.675 144.663 C 51.16 144.894 51.484 145.048 51.646 145.125 C 51.936 145.266 52.264 145.398 52.637 145.51 L 52.734 145.422 L 53.03 144.805 C 52.859 144.68 52.504 144.468 51.963 144.158 L 51.415 143.737 C 51.582 143.327 52.027 142.427 52.747 141.028 C 53.076 140.388 53.44 139.705 53.839 138.987 L 54.143 138.455 L 54.605 137.5 L 55.271 136.308 L 56.421 134.061 C 56.704 133.503 56.881 133.189 56.941 133.1 C 56.981 133.041 57.052 132.952 57.158 132.833 C 57.488 132.875 57.844 132.958 58.219 133.087 C 58.589 133.212 58.893 133.279 59.122 133.266 Z  M 34.42 130.33 C 34.559 129.827 34.782 129.128 35.098 128.215 C 35.414 127.301 35.71 126.519 35.982 125.859 L 36.211 126.038 C 36.454 126.244 37.251 126.933 38.608 128.096 L 34.42 130.33 Z  M 50.951 137.795 C 50.694 138.282 50.477 138.68 50.302 138.981 L 49.745 140.084 L 49.285 140.897 L 48.605 142.273 L 48.482 142.451 C 48.243 142.375 47.96 142.256 47.643 142.1 C 46.978 141.775 46.516 141.484 46.268 141.234 C 45.923 140.904 45.692 140.542 45.573 140.15 C 45.49 139.884 45.482 139.528 45.555 139.1 C 45.627 138.667 45.773 138.241 45.989 137.82 C 46.345 137.125 46.872 136.699 47.573 136.528 C 48.276 136.362 49.21 136.564 50.381 137.138 C 50.535 137.215 50.773 137.34 51.095 137.512 L 50.951 137.795 Z " fill="rgb(255,255,255)"/></g><g><path d=" M 130.265 35.565 C 130.18 35.465 130.098 35.405 130.028 35.388 C 129.857 35.347 129.726 35.328 129.637 35.347 C 129.508 35.363 129.393 35.417 129.291 35.507 C 129.137 35.63 129.052 35.79 129.037 35.975 C 129.021 36.158 129.081 36.331 129.216 36.478 C 129.364 36.645 129.555 36.728 129.803 36.722 C 129.936 36.722 130.088 36.651 130.257 36.514 C 130.383 36.408 130.45 36.258 130.456 36.075 C 130.463 35.885 130.398 35.713 130.265 35.565 Z " fill="rgb(255,255,255)"/></g><g><path d=" M 130.526 41.376 L 130.098 41.613 C 130.533 42.26 130.801 42.652 130.895 42.787 C 131.25 43.28 131.546 43.706 131.773 44.075 L 132.299 44.963 C 132.547 45.354 132.744 45.633 132.896 45.806 C 133.212 46.143 133.485 46.392 133.732 46.546 C 133.976 46.694 134.267 46.808 134.604 46.879 C 134.858 46.927 135.101 46.927 135.328 46.879 C 135.634 46.813 135.9 46.713 136.135 46.571 C 136.525 46.338 136.791 45.995 136.941 45.533 C 137.086 45.075 137.063 44.549 136.855 43.962 C 137.238 44.21 137.488 44.364 137.619 44.424 C 137.881 44.518 138.127 44.566 138.355 44.559 C 138.584 44.549 138.805 44.482 139.019 44.358 C 139.21 44.241 139.375 44.097 139.508 43.937 C 139.641 43.771 139.739 43.588 139.797 43.373 C 139.855 43.161 139.872 42.941 139.855 42.716 C 139.833 42.491 139.806 42.312 139.766 42.188 C 139.656 41.832 139.523 41.53 139.356 41.27 L 139.152 40.943 C 139.065 40.789 139.007 40.7 138.984 40.671 C 138.961 40.629 138.93 40.588 138.903 40.546 L 138.771 40.35 L 137.665 38.707 L 136.918 37.569 L 136.554 37.812 C 136.685 38.104 136.774 38.28 136.81 38.347 C 136.899 38.501 136.941 38.619 136.934 38.696 C 136.934 38.732 136.928 38.755 136.914 38.78 C 136.868 38.844 136.716 38.957 136.458 39.123 C 135.493 39.728 134.893 40.101 134.662 40.238 L 132.43 41.578 C 132.049 41.809 131.75 41.969 131.535 42.059 C 131.454 42.088 131.357 42.1 131.248 42.1 C 131.094 41.998 130.938 41.844 130.768 41.642 C 130.678 41.536 130.597 41.447 130.526 41.376 Z  M 135.938 41.424 L 136.381 41.162 C 136.918 40.841 137.334 40.581 137.619 40.392 C 137.765 40.29 137.877 40.219 137.96 40.172 C 138.149 40.386 138.289 40.563 138.376 40.712 C 138.697 41.216 138.815 41.661 138.747 42.04 C 138.68 42.425 138.474 42.716 138.139 42.918 C 137.665 43.203 137.244 43.274 136.887 43.126 C 136.525 42.972 136.181 42.645 135.861 42.136 C 135.746 41.946 135.655 41.78 135.59 41.632 C 135.742 41.536 135.859 41.466 135.938 41.424 Z  M 132.447 43.517 L 133.647 42.78 L 134.429 42.325 L 135.074 41.934 C 135.16 41.998 135.268 42.142 135.403 42.354 C 135.707 42.841 135.886 43.232 135.944 43.534 C 135.998 43.837 135.94 44.158 135.763 44.489 C 135.64 44.738 135.405 44.957 135.07 45.159 C 134.746 45.354 134.436 45.462 134.149 45.473 C 133.859 45.498 133.576 45.414 133.3 45.242 C 133.027 45.065 132.767 44.786 132.522 44.395 C 132.403 44.204 132.322 43.966 132.276 43.688 C 132.332 43.611 132.388 43.559 132.447 43.517 Z " fill="rgb(255,255,255)"/></g><g><path d=" M 135.718 48.847 C 135.508 48.835 135.367 48.806 135.292 48.764 C 135.219 48.723 135.092 48.575 134.907 48.313 C 134.79 48.155 134.711 48.046 134.655 47.982 L 134.264 48.136 L 134.31 48.236 C 134.422 48.485 134.563 48.729 134.726 48.985 L 134.873 49.197 C 135.196 50.081 135.408 50.639 135.512 50.863 C 135.564 50.851 135.606 50.841 135.645 50.816 C 135.697 50.799 135.791 50.751 135.926 50.691 C 135.855 50.447 135.822 50.306 135.812 50.271 C 135.733 50.021 135.712 49.838 135.745 49.725 C 135.764 49.655 135.822 49.601 135.916 49.559 C 135.989 49.53 136.138 49.505 136.371 49.488 C 137.187 49.428 137.701 49.405 137.919 49.405 L 138.864 51.504 L 137.953 52.418 L 137.497 52.867 C 137.455 52.909 137.41 52.938 137.355 52.963 C 137.31 52.979 137.254 52.979 137.202 52.963 C 137.164 52.944 137.081 52.857 136.948 52.696 L 136.53 52.139 C 136.407 52.18 136.278 52.228 136.147 52.287 L 136.282 52.547 L 136.756 53.466 C 136.819 53.585 136.917 53.799 137.05 54.088 C 137.17 54.344 137.287 54.646 137.41 54.985 C 137.528 55.322 137.649 55.626 137.774 55.898 C 137.832 55.873 137.876 55.863 137.903 55.85 C 137.959 55.825 138.05 55.773 138.165 55.703 C 138.152 55.501 138.127 55.322 138.08 55.168 C 138.03 55.008 138.021 54.883 138.044 54.796 C 138.055 54.748 138.123 54.652 138.248 54.511 C 138.473 54.248 138.67 54.047 138.833 53.899 C 139.128 53.62 139.351 53.408 139.49 53.254 C 139.729 53.004 140.044 52.696 140.426 52.322 C 140.815 51.947 141.204 51.552 141.6 51.124 L 143.499 49.168 L 143.574 49.072 L 143.462 48.825 C 143.41 48.71 143.358 48.592 143.304 48.473 L 139.203 48.675 L 135.718 48.847 Z  M 140.322 50.094 C 139.958 50.46 139.634 50.768 139.347 51.024 L 139.28 50.886 C 139.207 50.739 138.985 50.229 138.608 49.363 L 141.15 49.22 C 140.965 49.434 140.691 49.725 140.322 50.094 Z " fill="rgb(255,255,255)"/></g><g><path d=" M 142.418 56.07 L 142.094 56.147 L 141.547 56.307 L 140.825 56.484 L 139.506 56.858 C 139.183 56.948 138.992 57 138.929 57.006 C 138.896 57.006 138.834 57.012 138.75 57.018 C 138.644 56.877 138.551 56.71 138.468 56.521 C 138.382 56.33 138.301 56.194 138.216 56.111 C 138.133 56.117 138.07 56.134 138.024 56.147 C 137.997 56.153 137.935 56.176 137.839 56.207 L 137.914 56.461 C 137.968 56.656 138.051 56.877 138.149 57.114 L 138.434 57.89 C 138.449 57.932 138.474 58.009 138.505 58.108 C 138.547 58.258 138.653 58.762 138.821 59.615 L 138.902 59.846 C 138.909 59.864 138.923 59.912 138.936 59.989 C 139.04 59.971 139.192 59.941 139.383 59.887 C 139.41 59.646 139.408 59.367 139.383 59.053 C 139.368 58.862 139.377 58.708 139.416 58.583 L 140.542 58.31 L 141.846 57.913 C 142.004 57.871 142.144 57.836 142.264 57.819 C 142.327 58.002 142.366 58.133 142.387 58.204 C 142.47 58.489 142.489 58.697 142.439 58.839 C 142.41 58.928 142.229 59.124 141.898 59.425 C 141.181 60.072 140.652 60.534 140.323 60.807 C 140.194 60.919 140.003 61.092 139.757 61.335 L 139.422 61.637 C 139.447 61.697 139.483 61.781 139.527 61.88 C 139.618 62.099 139.672 62.23 139.685 62.278 L 139.849 62.852 C 139.901 63.037 139.934 63.191 139.951 63.322 L 140.022 63.553 L 140.067 63.867 L 140.107 63.986 L 140.153 64.14 C 140.207 64.127 140.259 64.115 140.292 64.111 C 140.342 64.092 140.398 64.063 140.456 64.021 C 140.5 63.915 140.527 63.759 140.542 63.57 C 140.561 63.322 140.598 63.156 140.646 63.06 C 140.692 62.971 140.883 62.752 141.226 62.409 L 142.495 61.057 C 142.629 60.913 142.789 60.724 142.982 60.499 C 143.07 60.393 143.149 60.303 143.219 60.233 C 143.538 60.713 143.896 61.032 144.299 61.192 C 144.699 61.352 145.098 61.377 145.495 61.265 C 146.032 61.115 146.436 60.753 146.713 60.166 C 146.989 59.592 147.014 58.903 146.779 58.108 C 146.634 57.611 146.469 57.143 146.294 56.704 L 146.045 55.993 L 145.937 55.691 C 145.93 55.666 145.901 55.512 145.841 55.227 C 145.758 54.961 145.706 54.782 145.679 54.694 C 145.631 54.534 145.562 54.355 145.475 54.172 L 145.402 54.166 L 145.052 54.278 C 145.063 54.386 145.1 54.599 145.173 54.919 L 145.202 55.281 C 144.975 55.364 144.453 55.518 143.631 55.749 C 143.259 55.855 142.853 55.957 142.418 56.07 Z  M 144.337 57.233 L 144.83 57.118 L 145.627 56.881 L 145.743 56.864 C 145.797 56.983 145.851 57.131 145.907 57.31 C 146.016 57.682 146.061 57.961 146.055 58.15 C 146.041 58.4 145.98 58.618 145.868 58.803 C 145.791 58.934 145.652 59.063 145.454 59.188 C 145.254 59.319 145.027 59.419 144.78 59.49 C 144.376 59.598 144.012 59.556 143.69 59.348 C 143.371 59.14 143.115 58.708 142.92 58.05 C 142.895 57.967 142.859 57.83 142.818 57.647 L 142.982 57.599 C 143.274 57.522 143.504 57.463 143.694 57.422 L 144.337 57.233 Z " fill="rgb(255,255,255)"/></g><g><path d=" M 144.055 63.819 C 143.554 63.89 143.108 64.021 142.719 64.198 C 142.336 64.377 141.995 64.627 141.689 64.928 C 141.388 65.236 141.119 65.634 140.895 66.131 C 140.737 66.47 140.645 66.861 140.616 67.306 C 140.587 67.752 140.605 68.226 140.676 68.711 C 140.77 69.352 140.897 69.88 141.059 70.306 C 141.217 70.733 141.411 71.053 141.639 71.268 L 141.941 71.313 L 142.126 71.338 C 142.592 71.355 142.852 71.368 142.921 71.368 C 143.094 71.386 143.258 71.386 143.412 71.38 C 143.373 71.143 143.331 70.947 143.279 70.81 C 142.671 70.515 142.203 70.182 141.862 69.809 C 141.527 69.447 141.327 69.044 141.263 68.605 C 141.198 68.207 141.236 67.822 141.369 67.448 C 141.463 67.159 141.612 66.915 141.816 66.713 C 142.085 66.451 142.447 66.22 142.902 66.008 C 143.181 65.883 143.668 65.771 144.361 65.669 C 145.555 65.503 146.522 65.627 147.267 66.05 C 147.814 66.358 148.137 66.82 148.224 67.437 C 148.301 67.941 148.243 68.403 148.06 68.842 C 147.877 69.281 147.538 69.73 147.038 70.188 L 147.12 70.733 C 147.415 70.685 147.683 70.608 147.933 70.502 C 148.482 70.265 148.817 70.111 148.93 70.04 C 148.98 69.649 148.994 69.233 148.98 68.788 C 148.969 68.349 148.923 67.881 148.855 67.39 C 148.674 66.179 148.137 65.236 147.23 64.573 C 146.327 63.903 145.266 63.653 144.055 63.819 Z " fill="rgb(255,255,255)"/></g><g><path d=" M 149.286 77.564 C 149.283 76.846 149.261 76.035 149.219 75.144 C 149.194 74.545 149.179 74.173 149.179 74.029 C 149.177 73.615 149.198 73.247 149.244 72.926 C 149.267 72.762 149.286 72.56 149.298 72.334 L 148.805 72.304 C 148.79 72.406 148.784 72.494 148.78 72.571 C 148.772 72.779 148.747 73.003 148.697 73.236 C 148.68 73.307 148.668 73.365 148.657 73.407 C 148.647 73.49 148.62 73.555 148.574 73.592 C 148.514 73.603 148.47 73.603 148.453 73.603 L 147.69 73.663 L 146.989 73.663 L 146 73.692 L 145.306 73.686 L 142.982 73.715 L 142.786 73.711 C 142.62 73.715 142.501 73.715 142.43 73.715 C 142.247 73.721 142.099 73.692 141.977 73.65 C 141.896 73.49 141.831 73.205 141.777 72.785 C 141.752 72.56 141.727 72.406 141.71 72.329 L 141.284 72.329 L 141.311 73.058 L 141.311 73.313 C 141.357 74.012 141.375 74.605 141.382 75.086 C 141.382 76.058 141.371 76.882 141.344 77.57 C 141.309 78.542 141.29 79.141 141.29 79.366 C 141.29 79.522 141.296 79.728 141.311 79.99 L 142.014 80.09 L 143.179 80.31 L 143.367 80.339 C 143.437 80.352 143.525 80.356 143.627 80.368 C 143.631 80.279 143.631 80.214 143.631 80.167 C 143.631 80.09 143.627 79.99 143.614 79.865 C 143.115 79.686 142.726 79.461 142.449 79.189 C 142.237 78.987 142.099 78.75 142.035 78.484 C 141.948 78.092 141.902 77.618 141.898 77.06 C 141.896 76.218 141.935 75.714 142.022 75.554 C 142.079 75.442 142.187 75.388 142.343 75.388 L 143.674 75.4 C 144.003 75.375 144.407 75.371 144.898 75.365 L 145.106 75.365 C 145.141 75.673 145.158 76.122 145.162 76.734 C 145.162 77.25 145.152 77.545 145.122 77.628 C 145.085 77.743 145.029 77.82 144.958 77.866 C 144.86 77.932 144.623 78.009 144.24 78.086 C 144.036 78.134 143.897 78.163 143.833 78.182 L 143.835 78.608 L 143.97 78.608 C 144.091 78.608 144.274 78.602 144.517 78.59 C 144.763 78.571 144.939 78.567 145.052 78.567 C 145.122 78.567 145.22 78.571 145.343 78.571 C 145.464 78.577 145.742 78.583 146.175 78.577 C 146.36 78.577 146.639 78.571 147.007 78.554 L 147.012 78.205 L 147.007 78.128 C 146.491 78.026 146.186 77.955 146.096 77.92 C 145.967 77.861 145.88 77.801 145.83 77.73 C 145.776 77.653 145.736 77.468 145.707 77.16 C 145.676 76.852 145.661 76.343 145.657 75.625 C 145.657 75.554 145.663 75.465 145.676 75.365 L 146.454 75.365 L 147.488 75.352 C 148.193 75.352 148.599 75.359 148.701 75.365 C 148.72 75.75 148.732 76.189 148.732 76.676 C 148.736 77.102 148.72 77.51 148.691 77.878 C 148.674 78.086 148.661 78.211 148.657 78.246 C 148.657 78.407 148.639 78.531 148.611 78.631 C 148.418 78.798 148.231 78.929 148.041 79.016 L 147.611 79.26 C 147.448 79.32 147.328 79.372 147.245 79.407 C 147.236 79.509 147.232 79.58 147.232 79.609 L 147.245 79.859 C 147.297 79.859 147.33 79.865 147.361 79.865 L 147.611 79.852 L 148.882 79.846 C 149.021 79.846 149.134 79.811 149.213 79.734 C 149.273 79.26 149.304 78.898 149.304 78.654 L 149.286 77.564 Z " fill="rgb(255,255,255)"/></g><g><path d=" M 149.052 82.26 C 148.997 82.254 148.918 82.248 148.808 82.242 C 148.754 82.289 148.696 82.385 148.637 82.516 C 148.615 82.597 148.571 82.681 148.519 82.776 C 148.446 82.901 148.407 82.972 148.398 82.988 C 148.303 83.186 148.234 83.292 148.188 83.309 C 148.14 83.334 147.903 83.328 147.47 83.305 L 147.383 83.292 L 146.765 83.203 L 145.402 83.007 L 144.766 82.936 L 144.166 82.853 L 143.659 82.789 L 142.866 82.651 L 142.082 82.562 C 142.013 82.552 141.934 82.533 141.84 82.497 C 141.801 82.437 141.786 82.331 141.807 82.171 C 141.813 82.135 141.813 82.004 141.811 81.773 C 141.807 81.542 141.795 81.366 141.774 81.241 C 141.701 81.199 141.578 81.17 141.406 81.145 C 141.374 81.145 141.333 81.139 141.291 81.145 C 141.279 81.193 141.272 81.235 141.266 81.257 L 141.256 81.347 C 141.233 81.757 141.2 82.2 141.143 82.67 L 141.017 83.898 C 140.931 84.543 140.825 85.212 140.713 85.889 C 140.596 86.565 140.53 86.939 140.515 87.023 C 140.419 87.449 140.372 87.686 140.37 87.722 L 140.332 88.036 L 140.305 88.254 C 140.299 88.279 140.301 88.337 140.305 88.433 C 140.365 88.468 140.542 88.516 140.827 88.581 C 141.551 88.747 142.059 88.853 142.352 88.889 L 142.525 88.914 C 142.556 88.795 142.579 88.687 142.592 88.593 L 142.616 88.398 C 142.3 88.25 142.078 88.125 141.947 88.017 C 141.82 87.917 141.703 87.786 141.597 87.638 C 141.493 87.536 141.406 87.341 141.331 87.058 C 141.229 86.671 141.22 86.161 141.308 85.522 L 141.366 85.148 L 141.406 84.792 L 141.505 84.228 C 141.551 84.193 141.63 84.181 141.753 84.199 L 144.653 84.597 C 144.816 84.62 144.949 84.638 145.049 84.655 C 145.319 84.703 145.562 84.738 145.777 84.769 C 145.962 84.786 146.174 84.809 146.418 84.834 C 146.576 84.84 146.686 84.85 146.753 84.857 C 146.807 84.869 146.859 84.875 146.911 84.888 C 147.115 84.923 147.227 84.94 147.246 84.94 L 147.312 84.946 L 147.422 84.965 L 147.807 85.036 L 147.976 85.059 C 147.997 85.071 148.022 85.088 148.045 85.106 C 148.065 85.16 148.076 85.196 148.082 85.212 L 148.161 85.978 C 148.161 86.132 148.174 86.222 148.201 86.244 C 148.24 86.299 148.309 86.328 148.398 86.34 C 148.519 86.357 148.598 86.351 148.648 86.321 C 148.687 86.305 148.704 86.263 148.714 86.203 C 148.717 86.186 148.721 86.109 148.727 85.984 C 148.754 85.545 148.783 85.196 148.816 84.917 L 148.918 84.289 L 149.027 83.434 C 149.139 82.841 149.203 82.497 149.214 82.402 C 149.22 82.366 149.214 82.325 149.197 82.283 C 149.137 82.279 149.089 82.266 149.052 82.26 Z " fill="rgb(255,255,255)"/></g><g><path d=" M 146.328 91.824 C 146.101 91.498 145.831 91.219 145.514 90.988 C 145.071 90.667 144.607 90.443 144.118 90.307 C 143.709 90.193 143.34 90.135 143.014 90.135 C 142.504 90.129 142.146 90.151 141.936 90.193 C 141.561 90.282 141.21 90.42 140.879 90.603 C 140.548 90.786 140.203 91.059 139.833 91.414 C 139.808 91.439 139.706 91.587 139.523 91.86 C 139.419 92.001 139.323 92.18 139.229 92.388 C 139.104 92.661 138.994 92.962 138.896 93.289 C 138.518 94.61 138.622 95.754 139.206 96.715 C 139.787 97.675 140.64 98.309 141.763 98.617 C 142.51 98.825 143.29 98.802 144.104 98.546 C 144.726 98.351 145.275 98.001 145.752 97.498 C 146.23 96.988 146.586 96.335 146.813 95.53 C 146.95 95.061 147.027 94.622 147.033 94.213 C 147.042 93.805 146.981 93.382 146.856 92.956 C 146.732 92.523 146.553 92.151 146.328 91.824 Z  M 146.295 95.151 C 146.118 95.76 145.799 96.222 145.348 96.53 C 144.892 96.84 144.318 96.982 143.627 96.94 C 143.49 96.934 143.405 96.928 143.369 96.934 L 143.247 96.928 C 142.695 96.822 142.261 96.732 141.944 96.645 C 141.177 96.437 140.586 96.158 140.17 95.808 C 139.753 95.459 139.493 95.084 139.402 94.67 C 139.304 94.26 139.312 93.846 139.431 93.43 C 139.493 93.212 139.602 93.004 139.751 92.808 C 139.895 92.606 140.043 92.465 140.172 92.382 C 140.44 92.203 140.688 92.084 140.923 92.026 C 141.058 91.991 141.405 91.961 141.957 91.93 C 142.102 91.92 142.327 91.937 142.631 91.984 C 142.749 92.001 142.835 92.013 142.883 92.02 C 143.037 92.026 143.284 92.084 143.627 92.18 C 144.179 92.328 144.641 92.507 145.005 92.708 C 145.367 92.904 145.681 93.158 145.945 93.466 C 146.101 93.651 146.224 93.892 146.307 94.202 C 146.392 94.498 146.388 94.818 146.295 95.151 Z " fill="rgb(255,255,255)"/></g><g><path d=" M 143.893 101.934 C 143.754 102.065 143.584 102.159 143.388 102.226 C 143.294 102.261 143.201 102.267 143.105 102.249 C 142.911 102.219 142.597 102.111 142.167 101.916 L 141.022 101.418 L 139.212 100.576 L 138.907 100.441 C 138.771 100.38 138.42 100.203 137.839 99.906 C 137.635 99.806 137.525 99.717 137.506 99.64 C 137.486 99.563 137.55 99.373 137.696 99.063 C 137.76 98.945 137.8 98.88 137.808 98.857 C 137.841 98.791 137.873 98.703 137.902 98.595 C 137.81 98.549 137.744 98.512 137.702 98.502 C 137.642 98.472 137.567 98.435 137.473 98.406 C 137.421 98.477 137.388 98.531 137.367 98.572 C 137.361 98.595 137.313 98.703 137.24 98.905 C 137.161 99.101 136.986 99.492 136.72 100.072 C 136.364 100.665 136.162 101.015 136.108 101.133 L 136.01 101.348 L 136.47 101.537 C 136.522 101.483 136.558 101.441 136.578 101.406 C 136.834 100.95 137.019 100.653 137.142 100.534 C 137.234 100.54 137.3 100.54 137.346 100.553 C 137.388 100.559 137.461 100.576 137.563 100.617 C 137.929 100.749 138.274 100.88 138.584 101.009 L 139.329 101.312 L 139.724 101.502 C 139.861 101.556 139.993 101.614 140.119 101.668 L 142.221 102.569 L 140.975 103.085 C 140.461 103.293 139.874 103.518 139.217 103.755 L 138.172 104.111 L 136.78 104.602 L 134.798 105.315 L 133.799 105.646 L 133.52 106.287 L 133.816 106.418 C 133.845 106.435 133.942 106.464 134.103 106.524 L 134.392 106.672 L 134.691 106.79 L 135.38 107.104 C 135.436 107.129 135.532 107.169 135.675 107.229 L 137.664 108.066 C 137.796 108.12 137.912 108.166 138.014 108.201 C 138.341 108.319 138.769 108.505 139.314 108.742 C 139.56 108.854 139.714 108.925 139.784 108.954 C 139.924 109.008 140.003 109.037 140.028 109.05 C 140.119 109.091 140.18 109.139 140.207 109.191 C 140.226 109.216 140.24 109.347 140.259 109.584 C 140.263 109.624 140.24 109.78 140.186 110.04 C 140.165 110.136 140.159 110.236 140.159 110.342 L 140.527 110.502 C 140.563 110.431 140.598 110.354 140.633 110.271 L 141.172 109.056 L 141.655 107.964 L 141.707 107.816 L 141.38 107.662 C 141.278 107.733 141.166 107.864 141.037 108.047 C 140.864 108.303 140.719 108.451 140.602 108.486 C 140.527 108.515 140.369 108.476 140.124 108.361 C 140.047 108.332 139.757 108.226 139.25 108.047 C 138.988 107.953 138.698 107.841 138.395 107.704 C 138.085 107.568 137.814 107.454 137.585 107.371 C 137.354 107.288 137.047 107.165 136.657 107.005 L 136.004 106.732 L 135.861 106.665 C 139.185 105.473 141.118 104.793 141.661 104.608 C 142.208 104.431 142.878 104.181 143.669 103.855 C 143.704 103.79 143.733 103.732 143.754 103.69 C 143.767 103.665 143.814 103.553 143.9 103.351 C 143.991 103.156 144.039 103.037 144.056 103.008 C 144.07 102.973 144.091 102.931 144.118 102.889 C 144.228 102.681 144.289 102.556 144.314 102.515 C 144.349 102.425 144.416 102.271 144.511 102.053 L 144.58 101.893 L 144.803 101.431 L 144.405 101.277 C 144.151 101.637 143.981 101.864 143.893 101.934 Z " fill="rgb(255,255,255)"/></g><g><path d=" M 133.404 108.771 C 133.3 108.588 133.248 108.457 133.242 108.374 C 133.24 108.297 133.3 108.107 133.423 107.816 C 133.504 107.639 133.554 107.508 133.577 107.431 L 133.231 107.194 L 133.169 107.288 C 133.021 107.508 132.882 107.764 132.753 108.037 L 132.649 108.261 C 132.06 109.008 131.694 109.483 131.552 109.691 C 131.592 109.726 131.627 109.755 131.665 109.778 C 131.71 109.809 131.8 109.861 131.927 109.94 C 132.095 109.749 132.197 109.643 132.22 109.62 C 132.397 109.418 132.547 109.3 132.665 109.268 C 132.732 109.246 132.811 109.264 132.896 109.316 C 132.967 109.358 133.067 109.47 133.206 109.655 C 133.693 110.29 133.999 110.698 134.113 110.877 L 132.807 112.784 L 131.534 112.531 L 130.891 112.4 C 130.83 112.389 130.783 112.364 130.737 112.341 C 130.695 112.312 130.664 112.271 130.651 112.21 C 130.649 112.169 130.679 112.05 130.749 111.854 L 131.001 111.214 C 130.897 111.137 130.789 111.053 130.666 110.976 L 130.512 111.232 L 129.979 112.115 C 129.907 112.233 129.78 112.431 129.599 112.691 C 129.439 112.928 129.243 113.188 129.018 113.473 C 128.794 113.752 128.592 114.018 128.425 114.268 C 128.473 114.303 128.513 114.328 128.536 114.345 C 128.59 114.38 128.683 114.422 128.808 114.482 C 128.972 114.364 129.112 114.245 129.222 114.12 C 129.33 113.995 129.428 113.918 129.526 113.893 C 129.572 113.87 129.69 113.877 129.88 113.906 C 130.225 113.954 130.508 114.002 130.724 114.054 C 131.126 114.143 131.434 114.21 131.638 114.245 C 131.983 114.303 132.418 114.399 132.948 114.511 C 133.481 114.624 134.032 114.736 134.617 114.825 L 137.33 115.323 L 137.455 115.335 L 137.607 115.11 C 137.677 115.009 137.75 114.902 137.825 114.79 L 135.437 111.54 L 133.404 108.771 Z  M 134.815 113.219 C 134.301 113.117 133.858 113.017 133.485 112.922 L 133.564 112.791 C 133.662 112.655 133.978 112.198 134.517 111.422 L 136.013 113.425 C 135.73 113.39 135.333 113.325 134.815 113.219 Z " fill="rgb(255,255,255)"/></g><g><path d=" M 128.812 119.361 C 129 119.332 129.156 119.243 129.282 119.089 C 129.368 118.983 129.411 118.899 129.414 118.829 C 129.428 118.656 129.422 118.531 129.391 118.442 C 129.345 118.323 129.27 118.223 129.17 118.14 C 129.014 118.015 128.841 117.961 128.654 117.986 C 128.467 118.003 128.307 118.092 128.182 118.246 C 128.04 118.413 127.995 118.614 128.047 118.852 C 128.07 118.983 128.165 119.112 128.334 119.249 C 128.467 119.355 128.625 119.39 128.812 119.361 Z " fill="rgb(255,255,255)"/></g><g><path d=" M 26.005 115.851 C 25.865 115.851 25.709 115.915 25.545 116.046 C 25.414 116.153 25.347 116.302 25.335 116.485 C 25.326 116.675 25.387 116.847 25.516 117.001 C 25.603 117.101 25.676 117.162 25.749 117.178 C 25.917 117.226 26.05 117.245 26.144 117.232 C 26.271 117.216 26.388 117.162 26.487 117.078 C 26.646 116.954 26.735 116.8 26.75 116.61 C 26.77 116.425 26.714 116.261 26.583 116.101 C 26.442 115.934 26.244 115.851 26.005 115.851 Z " fill="rgb(255,255,255)"/></g><g><path d=" M 25.794 110.953 C 25.372 110.302 25.114 109.905 25.018 109.761 C 24.673 109.27 24.386 108.837 24.165 108.463 L 23.656 107.568 C 23.416 107.171 23.225 106.892 23.069 106.713 C 22.769 106.37 22.495 106.12 22.251 105.96 C 22.012 105.806 21.723 105.687 21.388 105.61 C 21.134 105.556 20.893 105.552 20.664 105.598 C 20.356 105.658 20.085 105.758 19.852 105.895 C 19.457 106.12 19.183 106.459 19.029 106.915 C 18.866 107.373 18.887 107.893 19.083 108.486 C 18.706 108.232 18.456 108.078 18.325 108.018 C 18.067 107.911 17.824 107.857 17.595 107.864 C 17.366 107.87 17.146 107.93 16.925 108.053 C 16.732 108.172 16.567 108.303 16.43 108.469 C 16.291 108.629 16.193 108.812 16.132 109.027 C 16.072 109.233 16.047 109.453 16.062 109.678 C 16.078 109.909 16.105 110.088 16.139 110.206 C 16.241 110.568 16.37 110.87 16.53 111.136 L 16.732 111.469 C 16.817 111.617 16.869 111.713 16.89 111.742 C 16.917 111.783 16.944 111.825 16.969 111.867 L 17.096 112.062 L 18.18 113.729 L 18.902 114.873 L 19.272 114.642 C 19.143 114.351 19.062 114.174 19.024 114.101 C 18.939 113.947 18.902 113.828 18.906 113.751 C 18.906 113.716 18.914 113.693 18.927 113.668 C 18.972 113.604 19.128 113.491 19.388 113.331 C 20.368 112.745 20.974 112.383 21.205 112.251 L 23.462 110.947 C 23.847 110.729 24.153 110.575 24.365 110.485 C 24.448 110.456 24.544 110.443 24.656 110.443 C 24.802 110.55 24.958 110.71 25.124 110.918 C 25.214 111.024 25.293 111.113 25.362 111.184 L 25.794 110.953 Z  M 19.954 111.049 L 19.505 111.296 C 18.964 111.604 18.544 111.854 18.248 112.043 C 18.103 112.139 17.99 112.21 17.907 112.258 C 17.726 112.039 17.587 111.854 17.501 111.713 C 17.194 111.203 17.081 110.758 17.154 110.379 C 17.231 109.992 17.437 109.703 17.778 109.507 C 18.259 109.233 18.681 109.174 19.037 109.328 C 19.395 109.476 19.73 109.815 20.04 110.331 C 20.152 110.52 20.241 110.693 20.302 110.841 C 20.146 110.93 20.033 111.001 19.954 111.049 Z  M 23.487 109.008 L 22.27 109.726 L 21.479 110.165 L 20.822 110.543 C 20.743 110.479 20.637 110.337 20.506 110.117 C 20.208 109.626 20.038 109.233 19.986 108.931 C 19.934 108.629 20.004 108.309 20.183 107.976 C 20.314 107.733 20.549 107.514 20.889 107.319 C 21.217 107.129 21.527 107.034 21.816 107.021 C 22.106 107.004 22.384 107.094 22.659 107.271 C 22.93 107.45 23.181 107.733 23.423 108.13 C 23.541 108.326 23.614 108.563 23.656 108.841 C 23.599 108.914 23.541 108.973 23.487 109.008 Z " fill="rgb(255,255,255)"/></g><g><path d=" M 20.308 103.624 C 20.52 103.637 20.66 103.672 20.735 103.714 C 20.808 103.755 20.932 103.903 21.107 104.169 C 21.22 104.33 21.303 104.442 21.357 104.502 L 21.75 104.353 L 21.706 104.259 C 21.598 104.009 21.463 103.755 21.303 103.5 L 21.163 103.292 C 20.851 102.397 20.652 101.839 20.552 101.608 C 20.504 101.621 20.46 101.631 20.421 101.656 C 20.362 101.673 20.269 101.714 20.136 101.775 C 20.202 102.018 20.235 102.153 20.242 102.195 C 20.317 102.451 20.333 102.634 20.296 102.746 C 20.277 102.811 20.221 102.865 20.123 102.913 C 20.046 102.936 19.896 102.961 19.665 102.971 C 18.852 103.013 18.334 103.031 18.122 103.025 L 17.212 100.909 L 18.14 100.019 L 18.604 99.569 C 18.648 99.532 18.7 99.497 18.746 99.48 C 18.796 99.455 18.846 99.461 18.902 99.486 C 18.939 99.497 19.029 99.592 19.152 99.759 L 19.553 100.316 C 19.682 100.281 19.809 100.233 19.94 100.179 L 19.813 99.913 L 19.355 98.987 C 19.295 98.862 19.197 98.656 19.072 98.359 C 18.964 98.099 18.846 97.795 18.733 97.458 C 18.617 97.114 18.502 96.811 18.382 96.538 C 18.321 96.557 18.282 96.574 18.253 96.58 C 18.194 96.603 18.107 96.657 17.991 96.721 C 17.993 96.923 18.024 97.108 18.068 97.262 C 18.113 97.422 18.122 97.547 18.09 97.635 C 18.084 97.682 18.016 97.772 17.887 97.913 C 17.649 98.169 17.452 98.371 17.287 98.513 C 16.988 98.791 16.761 99.006 16.62 99.153 C 16.372 99.397 16.056 99.705 15.665 100.067 C 15.269 100.429 14.874 100.826 14.466 101.246 L 12.54 103.169 L 12.456 103.262 L 12.565 103.512 C 12.615 103.624 12.664 103.743 12.714 103.862 L 16.819 103.73 L 20.308 103.624 Z  M 15.727 102.297 C 16.101 101.935 16.432 101.631 16.721 101.384 L 16.79 101.519 C 16.857 101.673 17.069 102.189 17.427 103.054 L 14.886 103.15 C 15.072 102.942 15.355 102.657 15.727 102.297 Z " fill="rgb(255,255,255)"/></g><g><path d=" M 10.944 97.025 C 11.169 96.948 11.699 96.8 12.523 96.586 C 12.9 96.486 13.307 96.384 13.744 96.29 L 14.067 96.218 L 14.62 96.057 L 15.342 95.897 L 16.669 95.548 C 16.996 95.46 17.185 95.419 17.246 95.406 C 17.281 95.4 17.346 95.4 17.427 95.4 C 17.531 95.541 17.622 95.714 17.701 95.903 C 17.78 96.093 17.864 96.23 17.947 96.32 C 18.03 96.307 18.09 96.295 18.134 96.29 C 18.163 96.278 18.226 96.259 18.321 96.224 L 18.253 95.974 C 18.197 95.774 18.124 95.554 18.03 95.317 L 17.76 94.528 C 17.745 94.487 17.722 94.422 17.695 94.316 C 17.654 94.16 17.556 93.656 17.406 92.803 L 17.325 92.573 C 17.319 92.554 17.31 92.5 17.294 92.429 C 17.19 92.435 17.042 92.464 16.85 92.518 C 16.819 92.762 16.813 93.041 16.832 93.355 C 16.846 93.538 16.832 93.698 16.792 93.823 L 15.66 94.077 L 14.348 94.451 C 14.189 94.487 14.048 94.522 13.932 94.541 C 13.873 94.356 13.834 94.227 13.809 94.15 C 13.732 93.865 13.719 93.656 13.775 93.515 C 13.805 93.426 13.988 93.23 14.325 92.939 C 15.053 92.304 15.588 91.855 15.925 91.582 C 16.056 91.48 16.245 91.31 16.503 91.066 L 16.84 90.769 C 16.817 90.71 16.786 90.627 16.74 90.525 C 16.653 90.301 16.601 90.17 16.592 90.128 L 16.439 89.547 C 16.389 89.364 16.355 89.21 16.343 89.079 L 16.278 88.842 L 16.235 88.528 L 16.199 88.416 L 16.158 88.255 C 16.099 88.268 16.054 88.272 16.016 88.285 C 15.964 88.297 15.91 88.32 15.846 88.368 C 15.804 88.48 15.777 88.628 15.752 88.819 C 15.731 89.067 15.694 89.233 15.646 89.323 C 15.598 89.412 15.402 89.631 15.053 89.968 L 13.761 91.297 C 13.619 91.439 13.455 91.624 13.262 91.848 C 13.17 91.955 13.091 92.038 13.018 92.109 C 12.708 91.624 12.354 91.297 11.959 91.131 C 11.562 90.964 11.16 90.935 10.761 91.035 C 10.224 91.172 9.812 91.534 9.527 92.109 C 9.238 92.685 9.205 93.371 9.421 94.166 C 9.556 94.672 9.708 95.14 9.883 95.583 L 10.116 96.301 L 10.214 96.605 C 10.224 96.627 10.253 96.781 10.307 97.066 C 10.38 97.333 10.432 97.518 10.457 97.605 C 10.503 97.765 10.567 97.944 10.653 98.127 L 10.725 98.134 L 11.081 98.028 C 11.069 97.919 11.031 97.707 10.965 97.387 L 10.944 97.025 Z  M 10.549 95.412 L 10.432 95.435 C 10.378 95.31 10.326 95.163 10.278 94.986 C 10.178 94.611 10.133 94.326 10.147 94.143 C 10.162 93.887 10.226 93.669 10.341 93.49 C 10.426 93.361 10.567 93.23 10.767 93.111 C 10.969 92.987 11.196 92.893 11.443 92.826 C 11.853 92.72 12.215 92.774 12.531 92.987 C 12.848 93.195 13.099 93.634 13.274 94.291 C 13.297 94.374 13.334 94.516 13.376 94.701 L 13.21 94.749 C 12.918 94.813 12.677 94.871 12.494 94.913 L 11.845 95.086 L 11.352 95.192 L 10.549 95.412 Z " fill="rgb(255,255,255)"/></g><g><path d=" M 12.251 88.504 C 12.753 88.446 13.198 88.327 13.587 88.154 C 13.972 87.975 14.326 87.738 14.633 87.437 C 14.943 87.135 15.216 86.744 15.451 86.251 C 15.615 85.918 15.715 85.527 15.753 85.077 C 15.792 84.632 15.78 84.164 15.72 83.677 C 15.634 83.036 15.516 82.497 15.366 82.071 C 15.21 81.644 15.023 81.324 14.8 81.103 L 14.502 81.056 L 14.313 81.02 C 13.851 80.997 13.587 80.985 13.52 80.979 C 13.35 80.962 13.185 80.962 13.029 80.962 C 13.063 81.199 13.106 81.389 13.154 81.53 C 13.753 81.84 14.222 82.177 14.554 82.552 C 14.883 82.93 15.077 83.334 15.133 83.773 C 15.181 84.17 15.141 84.555 15.002 84.927 C 14.9 85.212 14.748 85.45 14.538 85.651 C 14.265 85.907 13.899 86.138 13.443 86.334 C 13.16 86.459 12.672 86.565 11.977 86.648 C 10.778 86.796 9.819 86.648 9.079 86.222 C 8.536 85.901 8.228 85.439 8.146 84.815 C 8.078 84.318 8.142 83.85 8.334 83.417 C 8.525 82.978 8.875 82.539 9.38 82.088 L 9.307 81.542 C 9.018 81.584 8.748 81.655 8.496 81.757 C 7.938 81.988 7.603 82.135 7.485 82.2 C 7.435 82.593 7.41 83.007 7.416 83.452 C 7.418 83.891 7.452 84.359 7.52 84.85 C 7.674 86.068 8.198 87.016 9.089 87.697 C 9.984 88.385 11.038 88.652 12.251 88.504 Z " fill="rgb(255,255,255)"/></g><g><path d=" M 7.686 79.675 C 7.695 79.461 7.73 79.242 7.78 79.017 C 7.799 78.94 7.807 78.88 7.82 78.838 C 7.836 78.755 7.863 78.697 7.911 78.655 C 7.969 78.649 8.011 78.643 8.034 78.643 L 8.8 78.601 L 9.496 78.62 L 10.483 78.601 L 11.182 78.62 L 13.508 78.63 L 13.699 78.643 C 13.866 78.637 13.984 78.637 14.059 78.637 C 14.234 78.643 14.39 78.668 14.502 78.714 C 14.587 78.874 14.648 79.165 14.687 79.579 C 14.712 79.812 14.733 79.966 14.748 80.043 L 15.176 80.043 L 15.166 79.319 L 15.168 79.063 C 15.139 78.358 15.122 77.765 15.133 77.284 C 15.143 76.319 15.172 75.495 15.21 74.806 C 15.268 73.835 15.295 73.236 15.299 73.011 C 15.301 72.857 15.299 72.649 15.287 72.387 L 14.587 72.268 L 13.427 72.037 L 13.239 71.996 C 13.171 71.989 13.085 71.983 12.981 71.967 C 12.975 72.056 12.973 72.12 12.973 72.162 C 12.969 72.245 12.975 72.345 12.988 72.47 C 13.483 72.659 13.866 72.892 14.138 73.171 C 14.346 73.371 14.481 73.614 14.538 73.883 C 14.621 74.274 14.654 74.748 14.648 75.306 C 14.635 76.146 14.587 76.652 14.496 76.81 C 14.438 76.918 14.33 76.97 14.173 76.97 L 12.838 76.941 C 12.515 76.947 12.108 76.953 11.619 76.941 L 11.408 76.941 C 11.381 76.633 11.373 76.182 11.381 75.578 C 11.386 75.062 11.406 74.765 11.436 74.682 C 11.473 74.569 11.533 74.486 11.604 74.444 C 11.704 74.38 11.941 74.315 12.324 74.236 C 12.532 74.197 12.669 74.166 12.736 74.155 L 12.74 73.727 L 12.605 73.722 C 12.486 73.722 12.303 73.727 12.058 73.733 C 11.814 73.739 11.637 73.745 11.525 73.745 C 11.454 73.745 11.356 73.739 11.232 73.727 C 11.111 73.722 10.83 73.716 10.402 73.71 C 10.21 73.71 9.933 73.716 9.569 73.722 L 9.557 74.072 L 9.563 74.149 C 10.077 74.261 10.374 74.332 10.466 74.374 C 10.591 74.434 10.682 74.498 10.73 74.569 C 10.782 74.64 10.822 74.831 10.843 75.139 C 10.868 75.447 10.876 75.957 10.865 76.675 C 10.861 76.745 10.859 76.835 10.84 76.935 L 10.064 76.924 L 9.028 76.912 C 8.319 76.906 7.915 76.893 7.813 76.883 C 7.805 76.496 7.799 76.057 7.807 75.572 C 7.813 75.146 7.838 74.736 7.876 74.367 C 7.892 74.159 7.909 74.041 7.911 74.001 C 7.915 73.845 7.936 73.716 7.969 73.614 C 8.161 73.454 8.356 73.329 8.537 73.242 L 8.978 73.005 C 9.143 72.944 9.266 72.903 9.347 72.867 C 9.359 72.761 9.361 72.691 9.361 72.659 L 9.353 72.418 C 9.305 72.412 9.268 72.412 9.241 72.406 L 8.989 72.418 L 7.718 72.399 C 7.58 72.393 7.464 72.428 7.385 72.501 C 7.316 72.973 7.279 73.342 7.277 73.585 L 7.27 74.671 C 7.26 75.393 7.266 76.2 7.291 77.095 C 7.306 77.694 7.312 78.062 7.312 78.21 C 7.306 78.626 7.279 78.992 7.227 79.307 C 7.2 79.473 7.181 79.675 7.164 79.9 L 7.655 79.941 C 7.672 79.841 7.684 79.752 7.686 79.675 Z " fill="rgb(255,255,255)"/></g><g><path d=" M 7.589 69.98 C 7.647 69.986 7.728 69.993 7.839 70.003 C 7.893 69.957 7.951 69.862 8.009 69.731 C 8.038 69.654 8.078 69.57 8.14 69.477 C 8.207 69.352 8.249 69.281 8.261 69.262 C 8.359 69.073 8.43 68.967 8.475 68.942 C 8.525 68.925 8.76 68.93 9.195 68.967 L 9.281 68.984 L 9.894 69.079 L 11.253 69.298 L 11.889 69.381 L 12.489 69.477 L 13 69.548 L 13.785 69.701 L 14.567 69.803 C 14.634 69.808 14.715 69.833 14.806 69.874 C 14.846 69.926 14.852 70.039 14.838 70.195 C 14.831 70.236 14.825 70.365 14.825 70.596 C 14.825 70.829 14.833 71.006 14.846 71.131 C 14.923 71.172 15.044 71.202 15.214 71.226 C 15.247 71.231 15.287 71.231 15.333 71.231 C 15.341 71.185 15.351 71.143 15.358 71.118 L 15.37 71.035 C 15.403 70.621 15.445 70.182 15.505 69.708 L 15.655 68.493 C 15.753 67.839 15.872 67.176 15.998 66.5 C 16.127 65.83 16.198 65.451 16.215 65.374 C 16.315 64.941 16.369 64.708 16.373 64.673 L 16.415 64.359 L 16.448 64.14 C 16.454 64.115 16.454 64.057 16.452 63.968 C 16.394 63.926 16.215 63.872 15.928 63.801 C 15.208 63.624 14.702 63.512 14.411 63.477 L 14.24 63.445 C 14.207 63.564 14.182 63.672 14.168 63.766 L 14.136 63.955 C 14.446 64.109 14.673 64.24 14.798 64.346 C 14.927 64.454 15.044 64.583 15.141 64.739 C 15.241 64.833 15.333 65.029 15.403 65.32 C 15.493 65.705 15.493 66.221 15.397 66.862 L 15.333 67.234 L 15.283 67.586 L 15.173 68.141 C 15.129 68.179 15.046 68.189 14.925 68.172 L 12.033 67.721 C 11.871 67.698 11.738 67.679 11.64 67.656 C 11.367 67.608 11.126 67.567 10.916 67.531 C 10.729 67.509 10.514 67.484 10.269 67.461 C 10.117 67.442 10.005 67.432 9.938 67.425 C 9.886 67.413 9.83 67.407 9.778 67.394 C 9.578 67.353 9.466 67.336 9.447 67.33 L 9.378 67.323 L 9.268 67.307 L 8.885 67.234 L 8.717 67.199 C 8.7 67.194 8.675 67.176 8.648 67.153 C 8.631 67.105 8.623 67.07 8.617 67.045 L 8.552 66.281 C 8.557 66.131 8.544 66.044 8.523 66.006 C 8.477 65.961 8.413 65.929 8.319 65.913 C 8.201 65.894 8.118 65.9 8.07 65.925 C 8.032 65.942 8.011 65.984 8.003 66.044 C 8.001 66.061 7.995 66.138 7.984 66.269 C 7.955 66.701 7.914 67.051 7.874 67.33 L 7.762 67.952 L 7.637 68.807 C 7.516 69.394 7.446 69.743 7.431 69.833 C 7.423 69.874 7.429 69.916 7.446 69.951 C 7.51 69.968 7.556 69.974 7.589 69.98 Z " fill="rgb(255,255,255)"/></g><g><path d=" M 10.49 60.469 C 10.713 60.796 10.983 61.079 11.293 61.316 C 11.73 61.643 12.19 61.88 12.677 62.023 C 13.089 62.142 13.449 62.206 13.778 62.213 C 14.291 62.229 14.651 62.219 14.862 62.171 C 15.238 62.088 15.594 61.963 15.929 61.78 C 16.266 61.601 16.62 61.341 16.99 60.991 C 17.021 60.96 17.123 60.819 17.31 60.552 C 17.416 60.409 17.518 60.232 17.616 60.03 C 17.745 59.758 17.864 59.456 17.964 59.129 C 18.367 57.819 18.286 56.674 17.72 55.701 C 17.148 54.723 16.305 54.078 15.192 53.751 C 14.447 53.531 13.665 53.543 12.845 53.78 C 12.217 53.963 11.662 54.309 11.173 54.806 C 10.686 55.305 10.318 55.95 10.074 56.751 C 9.929 57.219 9.85 57.658 9.831 58.062 C 9.812 58.476 9.866 58.898 9.983 59.325 C 10.101 59.758 10.272 60.136 10.49 60.469 Z  M 10.59 57.136 C 10.775 56.533 11.102 56.081 11.564 55.773 C 12.026 55.476 12.602 55.345 13.289 55.393 C 13.428 55.405 13.513 55.411 13.551 55.411 L 13.671 55.411 C 14.229 55.53 14.658 55.63 14.974 55.726 C 15.737 55.95 16.326 56.235 16.738 56.591 C 17.148 56.947 17.398 57.326 17.485 57.742 C 17.574 58.152 17.558 58.566 17.427 58.982 C 17.36 59.2 17.252 59.402 17.1 59.597 C 16.95 59.793 16.801 59.935 16.665 60.018 C 16.403 60.19 16.147 60.297 15.91 60.357 C 15.773 60.392 15.427 60.415 14.876 60.44 C 14.726 60.446 14.502 60.421 14.2 60.373 C 14.079 60.351 13.998 60.338 13.948 60.332 C 13.794 60.321 13.551 60.261 13.21 60.168 C 12.654 60.001 12.194 59.816 11.832 59.61 C 11.479 59.402 11.167 59.142 10.906 58.832 C 10.755 58.643 10.636 58.393 10.555 58.097 C 10.476 57.79 10.488 57.475 10.59 57.136 Z " fill="rgb(255,255,255)"/></g><g><path d=" M 13.109 50.401 C 13.259 50.276 13.426 50.183 13.621 50.116 C 13.715 50.093 13.808 50.081 13.906 50.099 C 14.102 50.135 14.408 50.247 14.842 50.449 L 15.97 50.965 L 17.765 51.837 L 18.073 51.984 C 18.2 52.043 18.554 52.228 19.128 52.536 C 19.326 52.642 19.436 52.731 19.453 52.808 C 19.476 52.885 19.405 53.074 19.253 53.378 C 19.189 53.497 19.147 53.561 19.137 53.584 C 19.103 53.651 19.074 53.738 19.041 53.846 C 19.13 53.894 19.195 53.923 19.238 53.946 C 19.299 53.977 19.374 54.007 19.465 54.042 C 19.515 53.971 19.551 53.917 19.578 53.869 C 19.584 53.853 19.63 53.744 19.709 53.549 C 19.792 53.353 19.971 52.962 20.254 52.388 C 20.616 51.801 20.826 51.45 20.882 51.337 L 20.984 51.125 L 20.524 50.929 C 20.476 50.981 20.439 51.023 20.414 51.052 C 20.152 51.51 19.96 51.801 19.838 51.914 C 19.746 51.914 19.682 51.907 19.636 51.901 C 19.594 51.889 19.521 51.872 19.424 51.83 C 19.051 51.687 18.712 51.552 18.406 51.414 L 17.661 51.106 L 17.272 50.911 C 17.137 50.846 17.008 50.786 16.881 50.734 L 14.795 49.796 L 16.051 49.305 C 16.567 49.103 17.158 48.895 17.824 48.664 L 18.87 48.325 L 20.275 47.857 L 22.27 47.18 L 23.273 46.866 L 23.562 46.232 L 23.271 46.096 C 23.239 46.078 23.148 46.042 22.988 45.984 L 22.696 45.83 L 22.401 45.705 L 21.718 45.379 C 21.662 45.356 21.564 45.308 21.431 45.241 L 19.453 44.376 C 19.324 44.324 19.209 44.27 19.107 44.234 C 18.785 44.11 18.352 43.926 17.813 43.671 C 17.572 43.558 17.416 43.481 17.349 43.452 C 17.212 43.398 17.131 43.363 17.112 43.35 C 17.021 43.309 16.96 43.261 16.929 43.209 C 16.915 43.184 16.898 43.055 16.888 42.818 C 16.881 42.776 16.91 42.622 16.969 42.36 C 16.989 42.266 17 42.164 16.996 42.058 L 16.632 41.892 C 16.6 41.969 16.565 42.039 16.525 42.123 L 15.962 43.327 L 15.46 44.407 L 15.406 44.555 L 15.731 44.721 C 15.831 44.644 15.949 44.519 16.08 44.334 C 16.257 44.087 16.405 43.943 16.525 43.901 C 16.6 43.885 16.759 43.926 17 44.039 C 17.075 44.074 17.364 44.187 17.865 44.37 C 18.127 44.472 18.413 44.59 18.714 44.732 C 19.024 44.869 19.288 44.987 19.521 45.077 C 19.748 45.158 20.052 45.289 20.433 45.462 L 21.09 45.741 L 21.23 45.811 C 17.884 46.939 15.937 47.59 15.39 47.763 C 14.842 47.934 14.168 48.177 13.374 48.481 C 13.334 48.551 13.305 48.603 13.282 48.645 C 13.274 48.676 13.217 48.782 13.128 48.978 C 13.039 49.18 12.987 49.292 12.97 49.327 C 12.955 49.357 12.932 49.398 12.903 49.44 C 12.793 49.648 12.722 49.773 12.706 49.821 C 12.66 49.898 12.591 50.051 12.496 50.27 L 12.423 50.43 L 12.192 50.892 L 12.589 51.052 C 12.847 50.692 13.024 50.472 13.109 50.401 Z " fill="rgb(255,255,255)"/></g><g><path d=" M 23.724 43.748 C 23.828 43.931 23.876 44.062 23.878 44.145 C 23.882 44.229 23.817 44.412 23.686 44.703 C 23.605 44.88 23.553 45.011 23.528 45.082 L 23.867 45.325 L 23.93 45.242 C 24.088 45.017 24.229 44.767 24.362 44.495 L 24.473 44.27 C 25.074 43.534 25.45 43.066 25.594 42.864 C 25.557 42.828 25.519 42.799 25.484 42.776 C 25.436 42.741 25.351 42.687 25.226 42.61 C 25.053 42.793 24.953 42.899 24.922 42.924 C 24.739 43.12 24.593 43.232 24.475 43.267 C 24.404 43.286 24.329 43.267 24.238 43.209 C 24.173 43.167 24.073 43.055 23.942 42.87 C 23.461 42.223 23.17 41.815 23.054 41.632 L 24.398 39.745 L 25.667 40.024 L 26.303 40.161 C 26.36 40.178 26.412 40.203 26.457 40.232 C 26.501 40.261 26.528 40.303 26.541 40.357 C 26.545 40.398 26.512 40.517 26.437 40.712 L 26.172 41.347 C 26.272 41.43 26.385 41.513 26.501 41.59 L 26.661 41.341 L 27.213 40.469 C 27.288 40.344 27.417 40.155 27.602 39.899 C 27.766 39.662 27.966 39.402 28.195 39.129 C 28.428 38.85 28.629 38.588 28.802 38.341 C 28.754 38.305 28.717 38.28 28.694 38.264 C 28.638 38.228 28.55 38.18 28.428 38.12 C 28.255 38.232 28.116 38.351 28.005 38.476 C 27.893 38.601 27.789 38.671 27.695 38.696 C 27.654 38.713 27.531 38.707 27.346 38.678 C 26.998 38.624 26.715 38.572 26.503 38.511 C 26.102 38.418 25.798 38.347 25.594 38.305 C 25.251 38.239 24.816 38.145 24.283 38.014 C 23.761 37.889 23.206 37.777 22.623 37.677 L 19.923 37.13 L 19.8 37.113 L 19.642 37.338 C 19.569 37.44 19.494 37.54 19.417 37.652 L 21.747 40.943 L 23.724 43.748 Z  M 22.394 39.271 C 22.908 39.389 23.349 39.491 23.724 39.597 L 23.638 39.722 C 23.541 39.864 23.212 40.315 22.658 41.079 L 21.206 39.046 C 21.485 39.088 21.88 39.165 22.394 39.271 Z " fill="rgb(255,255,255)"/></g><g><path d=" M 28.133 34.456 C 28.292 34.581 28.464 34.635 28.652 34.623 C 28.843 34.604 29.003 34.521 29.14 34.367 C 29.28 34.2 29.328 34.001 29.282 33.764 C 29.259 33.632 29.165 33.495 28.997 33.36 C 28.866 33.258 28.708 33.21 28.52 33.241 C 28.329 33.264 28.171 33.36 28.036 33.508 C 27.948 33.61 27.905 33.697 27.898 33.764 C 27.878 33.934 27.884 34.065 27.915 34.148 C 27.961 34.273 28.034 34.367 28.133 34.456 Z " fill="rgb(255,255,255)"/></g><g><path d=" M 69.006 22.716 C 67.296 22.004 66.206 22.325 65.736 23.683 C 63.335 23.86 61.708 24.649 60.853 26.036 C 39.143 33.514 23.545 53.715 23.545 77.404 C 23.545 97 34.222 114.202 50.194 123.797 C 49.539 123.916 48.79 124.105 48.619 124.503 C 48.428 124.958 48.243 125.907 48.528 126.375 C 49.015 127.164 50.157 127.313 50.997 127.478 C 52.622 127.798 54.266 127.728 55.88 127.42 C 56.203 127.359 56.527 127.289 56.856 127.212 C 63.757 130.201 71.384 131.861 79.405 131.861 C 86.819 131.861 93.893 130.443 100.372 127.875 C 101.835 128.125 103.314 128.304 104.793 128.339 C 105.542 128.356 106.241 128.308 106.959 128.09 C 107.546 127.913 107.65 127.561 107.722 126.993 C 107.789 126.5 107.856 125.83 107.4 125.487 C 107.127 125.279 106.826 125.131 106.516 124.994 C 123.653 115.686 135.268 97.849 135.268 77.404 C 135.268 49.5 113.629 26.44 85.852 23.309 C 84.76 20.687 82.738 20.363 79.773 22.36 C 76.893 20.456 75.119 20.729 74.447 23.167 C 74.393 23.167 74.339 23.171 74.282 23.178 C 72.16 21.311 70.402 21.155 69.006 22.716 Z  M 107.319 126.198 C 107.3 126.211 107.285 126.215 107.263 126.221 C 107.446 125.972 107.714 125.99 107.319 126.198 Z  M 102.02 126.317 C 101.071 126.192 100.131 126.032 99.194 125.849 C 98.231 125.664 97.284 125.391 96.296 125.381 C 95.533 125.374 94.782 125.558 94.056 125.766 C 93.194 126.015 92.443 126.442 91.536 126.269 C 91.236 126.215 90.953 126.086 90.75 125.865 C 90.766 125.813 90.785 125.759 90.804 125.712 C 91.145 124.763 91.646 123.881 92.11 122.99 C 92.945 121.426 93.094 119.291 92.641 117.593 C 92.451 116.894 92.096 116.26 91.673 115.667 C 91.332 115.199 91.128 114.558 90.879 114.036 C 90.627 113.491 90.388 112.945 90.146 112.394 C 88.365 108.266 87.154 103.933 86.661 99.485 C 89.913 99.052 93.121 98.731 96.29 98.532 C 96.275 98.731 96.277 98.933 96.288 99.118 C 96.458 102.379 96.631 105.641 96.804 108.901 C 96.91 110.965 97.026 113.022 97.137 115.086 C 97.185 116.006 97.085 117.073 97.526 117.91 C 98.653 120.08 100.409 122.083 102.117 123.827 C 102.985 124.705 103.928 125.564 105.014 126.18 C 105.265 126.323 105.536 126.442 105.806 126.548 C 104.562 126.666 103.218 126.465 102.02 126.317 Z  M 74.813 28.629 L 76.244 32.459 C 76.284 32.552 76.413 32.594 76.569 32.6 L 76.467 32.636 C 77.193 32.819 77.807 33.17 78.009 33.495 C 78.454 34.001 78.814 34.86 79.298 36.934 C 79.627 38.199 78.718 39.318 76.575 40.309 C 75.277 40.902 71.725 37.184 73.234 40.452 C 73.352 40.706 73.483 40.908 73.623 41.085 C 70.675 39.888 68.286 39.033 66.47 38.513 C 66.41 39.462 66.383 40.178 66.393 40.677 C 65.682 40.885 64.862 40.902 63.94 40.735 C 63.786 40.017 63.778 39.27 63.901 38.513 C 45.673 28.77 29.356 57.718 55.375 67.603 C 57.751 63.885 60.05 62.597 62.282 63.737 C 64.358 61.17 66.984 62.087 69.632 67.027 C 70.071 68.029 68.534 68.462 68.084 67.603 L 66.252 64.738 C 65.906 64.282 64.962 64.763 65.517 65.597 L 67.207 68.248 C 67.774 69.157 67.65 69.802 66.84 70.183 C 65.619 71.635 64.442 71.658 63.312 70.253 C 61.664 69.559 60.786 68.558 60.663 67.247 C 60.17 66.629 59.802 66.671 59.563 67.389 L 55.375 84.869 C 59.611 86.879 65.465 87.786 72.938 87.59 L 74.688 41.911 C 75.354 42.283 76.08 42.651 76.725 43.927 C 78.009 46.469 81.57 46.725 82.161 45.681 C 83.012 43.985 84.398 42.065 86.314 39.911 C 86.963 39.187 86.043 38.719 85.432 39.264 C 84.433 40.155 83.613 40.273 82.532 39.193 L 81.61 37.908 C 81.096 37.44 80.603 38.353 80.952 38.696 C 81.643 39.347 82.448 39.924 82.75 40.735 C 83.414 42.526 79.205 42.68 78.489 41.596 C 77.902 40.7 80.878 38.405 80.803 37.616 L 80.031 33.645 C 79.885 33.104 79.496 32.629 79.04 32.607 L 77.499 32.209 C 77.532 32.155 77.549 32.097 77.532 32.03 L 77.166 29.02 C 77.12 28.527 78.267 28.088 78.377 28.373 C 78.633 29.754 78.718 30.886 78.635 31.783 C 78.685 32.161 80.031 32.174 80.068 31.783 L 80.176 27.982 C 80.176 27.649 81.61 27.59 81.539 27.982 L 81.059 31.783 C 81.04 32.132 82.346 32.5 82.386 32.103 C 82.584 30.626 82.867 29.28 83.226 28.052 C 83.397 27.78 84.664 27.982 84.514 28.414 L 83.449 32.068 C 83.403 32.34 84.404 32.962 84.625 32.819 C 85.02 32.328 85.609 31.171 86.387 29.344 C 86.63 29.101 87.787 29.417 87.675 30.097 L 86.018 33.212 C 85.885 33.485 86.94 34.142 87.123 33.892 L 89.809 30.526 C 90.157 29.671 90.202 28.912 89.953 28.273 C 89.907 27.543 89.818 26.914 89.699 26.386 C 114.197 31.077 132.741 52.168 132.741 77.404 C 132.741 97.469 121.017 114.903 103.9 123.571 C 103.38 123.15 102.894 122.682 102.434 122.225 C 101.408 121.211 100.478 120.102 99.6 118.971 C 98.934 118.105 98.283 117.215 97.757 116.26 C 97.626 116.023 97.534 115.561 97.565 116.064 C 97.559 115.933 97.553 115.81 97.542 115.679 C 97.461 114.084 97.374 112.494 97.291 110.9 C 97.072 106.773 96.85 102.641 96.631 98.507 C 98.724 98.376 100.798 98.299 102.85 98.263 C 103.796 98.128 104.238 97.529 104.173 96.478 L 103.586 90.959 C 101.237 91.76 95.308 92.382 85.8 92.821 C 86.016 95.388 86.114 97.635 86.095 99.557 C 86.154 99.545 86.212 99.545 86.272 99.532 C 86.262 99.728 86.266 99.924 86.285 100.115 C 86.682 104.27 87.689 108.321 89.183 112.228 C 89.901 114.102 90.652 116.106 91.757 117.795 C 92.179 118.442 92.489 119.202 92.53 119.965 C 92.585 120.987 91.642 122.183 91.207 123.086 C 90.646 124.234 89.901 126.015 90.394 127.301 C 90.575 127.782 90.916 128.006 91.33 128.083 C 87.494 128.943 83.505 129.394 79.405 129.394 C 74.453 129.394 69.657 128.73 65.105 127.497 C 65.548 126.791 65.555 125.718 65.511 124.987 C 65.457 124.07 65.101 123.234 64.953 122.337 C 64.791 121.342 64.704 120.292 64.937 119.301 C 65.138 118.436 65.561 117.712 66.089 117.007 C 66.801 116.064 67.5 115.115 68.184 114.144 C 69.331 112.531 70.433 110.869 71.451 109.169 C 72.932 106.689 74.293 104.074 75.025 101.282 C 75.506 99.455 75.795 97.304 75.189 95.453 C 75.366 95.446 75.537 95.43 75.691 95.401 C 75.995 95.334 76.255 95.253 76.269 94.932 L 76.327 89.205 C 76.357 88.972 76.226 88.907 76.051 88.812 C 75.593 88.651 75.083 88.574 74.513 88.581 C 74.23 88.581 74.091 88.658 74.095 88.812 C 73.818 92.151 73.683 94.19 73.7 94.932 C 73.694 95.186 73.768 95.317 73.918 95.34 C 74.118 95.382 74.311 95.407 74.492 95.43 C 74.465 95.686 74.457 95.981 74.569 96.177 C 75.468 97.789 75.098 99.485 74.557 101.145 C 73.55 104.224 71.811 107.087 70.044 109.798 C 68.863 111.612 67.598 113.372 66.299 115.103 C 65.251 116.503 64.697 117.914 64.514 119.645 C 64.304 121.609 64.573 123.471 65.062 125.374 C 65.095 125.51 65.12 125.653 65.138 125.788 C 65.122 125.836 65.099 125.897 65.053 125.961 C 64.891 126.198 64.625 126.334 64.358 126.429 C 63.703 126.66 62.692 126.15 62.086 125.932 C 60.992 125.535 59.864 125.119 58.679 125.196 C 57.83 125.256 57 125.493 56.169 125.657 C 55.102 125.878 54.029 125.99 52.938 125.955 C 52.248 125.936 51.563 125.836 50.889 125.699 C 50.612 125.647 50.336 125.576 50.061 125.503 C 50.594 125.404 51.114 125.339 51.326 125.297 C 52.087 125.131 52.953 125.054 53.681 124.763 C 54.617 124.395 55.462 123.695 56.242 123.086 C 57.449 122.131 58.577 121.064 59.584 119.901 C 60.832 118.461 61.71 116.907 61.98 115.038 C 62.234 113.289 62.486 111.539 62.738 109.791 C 63.258 106.205 63.778 102.616 64.296 99.029 C 64.304 98.969 64.317 98.892 64.325 98.821 L 72.424 99.77 L 72.647 93.324 C 72.358 92.507 71.867 92.192 71.174 92.394 C 61.221 91.991 55.612 91.036 54.345 89.523 L 52.945 96.478 C 53.044 97.042 53.631 97.452 54.711 97.689 L 63.969 98.779 C 63.503 102.012 63.035 105.254 62.567 108.487 C 62.294 110.378 62.02 112.269 61.749 114.154 C 61.697 114.506 61.649 114.843 61.6 115.192 C 61.677 114.641 61.479 115.388 61.414 115.542 C 61.277 115.869 61.102 116.17 60.923 116.48 C 60.511 117.15 60.016 117.772 59.496 118.371 C 58.495 119.522 57.351 120.564 56.147 121.507 C 55.524 122 54.678 122.776 53.864 123.026 C 37.316 114.192 26.071 97.055 26.071 77.404 C 26.071 55.353 40.229 36.466 60.147 28.918 C 60.147 29.049 60.143 29.18 60.154 29.309 C 57.844 31.978 59.122 35.507 62.099 35.328 C 62.842 37.725 64.816 37.908 66.252 35.969 C 68.049 35.933 69.079 35.097 69.337 33.46 C 71.147 31.706 71.368 30.235 70.001 29.061 C 69.672 28.764 70.184 28.158 70.733 28.591 C 71.428 29.049 72.483 30.424 73.893 32.713 C 74.068 32.879 75.402 32.5 75.362 32.174 L 73.635 28.77 C 73.498 28.344 74.775 28.308 74.813 28.629 M 68.434 47.312 C 68.698 47.27 68.927 47.466 69.139 47.898 C 69.297 48.398 69.433 49.097 69.198 49.244 L 67.36 50.455 C 66.978 50.638 66.747 50.555 66.576 50.312 C 65.942 49.417 65.582 48.835 65.613 48.581 C 65.659 48.177 66.609 48.011 68.434 47.312 Z  M 64.806 45.747 C 64.645 45.818 64.514 45.741 64.414 45.527 L 64.003 44.174 C 63.948 43.814 64.036 43.517 64.306 43.452 C 66.206 43.024 67.075 42.936 67.179 43.113 C 67.371 43.446 67.556 44.786 67.589 45.004 C 67.623 45.2 66.688 45.45 64.806 45.747 Z  M 69.572 52.507 L 71.118 50.715 C 71.403 50.424 71.75 50.43 72.148 50.738 L 73.388 51.562 C 73.477 51.645 72.818 52.453 71.405 53.994 C 71.124 54.225 70.91 54.292 70.766 54.19 L 69.383 53.408 C 69.152 53.27 69.216 52.969 69.572 52.507 Z  M 49.712 57.001 C 49.539 57.333 49.343 57.356 49.125 57.065 C 46.406 50.122 51.108 40.09 61.991 41.524 C 62.455 41.572 61.801 44.898 61.406 44.963 C 53.625 46.072 50.022 49.559 49.712 57.001 Z  M 60.445 54.491 C 57.553 55.109 54.932 55.507 53.756 61.353 C 53.535 61.946 53.288 61.869 53.24 61.299 C 52.531 55.607 55.058 51.866 60.865 49.434 C 61.444 49.305 60.832 54.498 60.445 54.491 Z " fill="rgb(255,255,255)"/></g><g><path d=" M 78.83 50.763 C 79.864 49.429 79.046 47.869 77.698 48.041 C 75.782 48.278 75.463 49.868 76.387 51.012 C 76.911 51.67 78.258 51.503 78.83 50.763 Z " fill="rgb(255,255,255)"/></g><g><path d=" M 82.358 51.101 C 84.23 51.155 84.432 48.325 82.568 47.822 C 81.607 47.56 80.962 48.046 80.704 49.049 C 80.363 50.366 80.949 51.059 82.358 51.101 Z " fill="rgb(255,255,255)"/></g><g><path d=" M 78.374 57.504 L 78.854 52.819 C 78.9 52.447 78.742 52.216 78.374 52.12 L 77.225 52.033 C 76.963 51.972 76.749 52.12 76.595 52.476 L 75.161 56.612 C 75.095 56.866 75.174 57.068 75.396 57.209 C 77.325 57.504 78.315 57.604 78.374 57.504 Z " fill="rgb(255,255,255)"/></g><g><path d=" M 84.046 57.528 C 84.223 57.422 84.297 57.214 84.281 56.9 L 83.257 52.554 C 83.13 52.292 82.947 52.15 82.708 52.131 C 81.93 52.156 80.542 52.358 80.563 52.554 C 80.969 55.281 81.208 57.154 81.208 57.682 C 81.275 57.984 82.96 57.73 84.046 57.528 Z " fill="rgb(255,255,255)"/></g><g><path d=" M 78.875 59.912 C 78.468 58.572 76.803 58.453 76.104 59.639 C 75.351 60.919 75.326 62.342 76.522 62.473 C 78.393 62.687 79.296 61.281 78.875 59.912 Z " fill="rgb(255,255,255)"/></g><g><path d=" M 83.976 61.394 C 84.837 59.782 83.653 58.814 82.243 59.058 C 80.928 59.289 80.453 60.624 81.09 61.958 C 81.415 62.634 83.335 62.597 83.976 61.394 Z " fill="rgb(255,255,255)"/></g><g><path d=" M 77.564 89.316 C 77.596 90.685 77.616 92.579 77.623 94.992 C 77.656 95.341 77.795 95.441 78.103 95.518 C 78.434 95.624 78.981 95.685 79.736 95.691 C 80.073 95.583 80.273 95.406 80.336 95.169 L 80.396 89.495 C 80.371 89.169 80.132 89.127 79.919 88.99 C 79.445 88.736 78.86 88.611 78.164 88.64 C 77.677 88.653 77.504 89.025 77.564 89.316 Z " fill="rgb(255,255,255)"/></g><g><path d=" M 83.744 88.812 L 82.567 88.871 C 82.232 88.896 82.053 89.002 82.03 89.204 L 82.149 95.11 C 82.105 95.447 82.224 95.62 82.507 95.63 C 83.16 95.72 83.753 95.703 84.283 95.572 C 84.541 95.549 84.691 95.354 84.739 94.992 L 84.283 89.204 C 84.225 89.002 84.042 88.871 83.744 88.812 Z " fill="rgb(255,255,255)"/></g><g><path d=" M 102.707 86.369 L 99.986 69.037 L 99.399 69.037 C 98.808 70.353 97.51 71.238 95.507 71.687 C 93.538 72.363 91.533 72.043 92.783 70.828 L 94.843 68.321 C 95.086 67.969 94.098 67.139 93.811 67.46 L 91.755 69.465 C 90.73 70.495 89.779 70.139 90.432 68.824 C 91.72 66.203 93.903 64.484 96.971 63.658 C 98.863 63.956 100.604 65.319 102.189 67.745 C 122.695 62.943 117.109 32.713 96.53 39.3 L 96.53 41.312 C 96.507 41.697 94.146 42.148 94.032 41.667 L 93.665 40.088 L 85.287 41.595 L 84.846 42.171 L 86.169 87.52 L 102.707 86.369 Z  M 98.979 42.841 C 107.488 45.04 110.553 50.626 108.724 58.299 C 108.452 59.023 107.89 59.135 107.865 58.44 C 107.64 51.895 102.824 48.119 98.553 47.068 C 98.057 46.944 98.03 46.482 97.997 46.251 C 98.014 44.389 98.528 42.822 98.979 42.841 Z  M 97.76 50.366 C 97.756 49.86 98.072 49.825 98.694 50.277 C 102.135 53.027 104.305 56.568 103.496 60.731 C 103.334 61.62 102.884 61.78 102.555 61.008 C 101.224 57.879 99.738 56.129 97.901 55.139 C 97.664 55.014 97.525 54.77 97.471 54.408 L 97.76 50.366 Z  M 92.79 44.168 C 93.538 43.771 95.935 44.424 95.983 44.803 C 96.062 45.764 95.798 46.694 95.301 46.748 C 94.073 46.405 93.193 45.966 92.669 45.431 C 92.459 45.159 92.521 44.328 92.79 44.168 Z  M 90.555 48.088 C 90.905 47.78 91.4 47.726 92.053 47.928 C 92.44 48.075 93.037 48.562 93.844 49.386 C 94.113 49.696 92.69 51.469 92.257 51.046 L 90.104 49.114 C 89.989 48.758 90.137 48.415 90.555 48.088 Z  M 87.509 51.202 C 87.85 51.001 88.16 51.03 88.447 51.29 L 89.581 52.867 C 89.885 53.2 89.912 53.568 89.663 53.976 C 89.465 54.296 88.046 55.162 87.844 54.847 L 86.415 52.434 C 86.223 52.049 86.588 51.635 87.509 51.202 Z " fill="rgb(255,255,255)"/></g><g><path d=" M 63.641 119.842 C 63.577 119.8 63.51 119.829 63.465 119.996 C 63.294 120.655 63.055 121.562 62.483 121.989 C 62.175 122.22 61.896 122.38 62.044 122.819 C 62.139 123.091 62.441 123.127 62.699 123.133 C 64.23 123.156 64.003 121.005 63.806 120.072 C 63.772 119.9 63.706 119.835 63.641 119.842 Z  M 63.13 122.319 C 63.09 122.344 62.998 122.367 62.899 122.39 C 62.899 122.39 62.905 122.386 62.909 122.386 C 63.109 122.136 63.252 121.835 63.379 121.55 C 63.452 121.377 63.523 121.2 63.587 121.021 C 63.641 121.531 63.587 122.066 63.13 122.319 Z " fill="rgb(255,255,255)"/></g></g></g></svg>