<?xml version="1.0" encoding="UTF-8" standalone="no"?><!-- Generator: Gravit.io --><svg xmlns="http://www.w3.org/2000/svg" xmlns:xlink="http://www.w3.org/1999/xlink" style="isolation:isolate" viewBox="0 0 48.898 39.713" width="48.898pt" height="39.713pt"><defs><clipPath id="_clipPath_jhejHMnh06a5edX72oNopAMaqwNFtEKg"><rect width="48.898" height="39.713"/></clipPath></defs><g clip-path="url(#_clipPath_jhejHMnh06a5edX72oNopAMaqwNFtEKg)"><path d=" M 43.876 9.899 C 43.907 10.333 43.907 10.767 43.907 11.202 C 43.907 24.452 33.823 39.718 15.391 39.718 C 9.712 39.718 4.437 38.074 0 35.219 C 0.807 35.312 1.582 35.343 2.42 35.343 C 7.106 35.343 11.419 33.761 14.863 31.061 C 10.457 30.968 6.764 28.082 5.492 24.11 C 6.113 24.203 6.733 24.265 7.385 24.265 C 8.285 24.265 9.185 24.141 10.023 23.924 C 5.43 22.993 1.986 18.959 1.986 14.088 L 1.986 13.964 C 3.32 14.708 4.872 15.174 6.516 15.236 C 3.817 13.436 2.048 10.364 2.048 6.889 C 2.048 5.027 2.544 3.32 3.413 1.831 C 8.347 7.913 15.763 11.884 24.079 12.319 C 23.924 11.574 23.831 10.798 23.831 10.023 C 23.831 4.499 28.299 0 33.853 0 C 36.739 0 39.346 1.21 41.177 3.165 C 43.442 2.731 45.614 1.893 47.538 0.745 C 46.793 3.072 45.21 5.027 43.131 6.268 C 45.148 6.051 47.103 5.492 48.903 4.717 C 47.538 6.702 45.831 8.471 43.876 9.899 L 43.876 9.899 Z " fill="rgb(255,255,255)"/></g></svg>